<svg xmlns="http://www.w3.org/2000/svg" viewBox="0 0 44.38 55.03"><defs><style>.cls-1{fill:#fff5fb;}</style></defs><g id="Layer_2" data-name="Layer 2"><g id="Layer_1-2" data-name="Layer 1"><path class="cls-1" d="M37.6,9.28a3.28,3.28,0,0,0,1.56,3.3,13.51,13.51,0,0,1,1.24,1.15,1.84,1.84,0,0,1,.38,2.2c-.23.52-.47,1-.72,1.54A2.54,2.54,0,0,0,40,19.59c.17.43.36.86.54,1.28s.25.57.35.86a2,2,0,0,1-.73,2.62c-.36.31-.73.61-1.11.89a2.67,2.67,0,0,0-1.08,2.09c0,.73-.08,1.46-.14,2.19a2,2,0,0,1-1.68,1.93l-1.61.38A2.49,2.49,0,0,0,32.85,33c-.27.44-.51.89-.77,1.34-.1.18-.19.36-.3.54A2.17,2.17,0,0,1,29,36.1l-1.28-.28a2.57,2.57,0,0,0-2.1.38l-.73.49c-.3.21-.58.43-.88.63-1.35.91-2,.89-3.28-.09-.29-.22-.59-.45-.87-.69A2.85,2.85,0,0,0,17.38,36c-.83.13-1.67.27-2.51.35a1.71,1.71,0,0,1-1.73-.94c-.27-.47-.52-.94-.74-1.43a2.89,2.89,0,0,0-2-1.74c-.62-.15-1.24-.32-1.85-.52a2.09,2.09,0,0,1-1.73-2.35c0-.48,0-1,0-1.46A2.41,2.41,0,0,0,6,26.11l-1.09-1c-.22-.2-.45-.39-.66-.6a2.06,2.06,0,0,1-.53-2.8c.22-.46.45-.92.67-1.39a2.35,2.35,0,0,0,0-1.94c-.23-.59-.49-1.16-.73-1.75-.65-1.59-.49-2.2.85-3.26.27-.22.54-.44.82-.65a2.67,2.67,0,0,0,1.09-2.11c0-.73.08-1.47.14-2.19A2,2,0,0,1,8.22,6.53c.53-.12,1-.25,1.58-.36a2.66,2.66,0,0,0,1.83-1.35l.58-1,.26-.48c.86-1.5,1.48-1.77,3.17-1.39l1.13.25a2.41,2.41,0,0,0,1.92-.32c.41-.26.81-.55,1.21-.82s.61-.43.93-.63A2,2,0,0,1,23.4.52c.35.28.72.54,1.06.83A2.91,2.91,0,0,0,27.05,2c.57-.11,1.14-.2,1.71-.29a4.91,4.91,0,0,1,.65-.06,1.89,1.89,0,0,1,1.92,1.09c.25.45.49.91.7,1.38a2.72,2.72,0,0,0,1.86,1.6l1.44.41.7.22A2,2,0,0,1,37.6,8.51C37.59,8.77,37.6,9,37.6,9.28ZM22.2,3.7A15.29,15.29,0,1,0,37.47,19.05,15.3,15.3,0,0,0,22.2,3.7Z"/><path class="cls-1" d="M0,48.37l.37-.65q4.08-7.08,8.16-14.16c.18-.31.34-.34.67-.26a3.24,3.24,0,0,1,2.3,2c.19.45.43.88.66,1.31a1.94,1.94,0,0,0,2,1.1,18.9,18.9,0,0,0,2.24-.33,3.39,3.39,0,0,1,3.19.81c.34.31.72.57,1.13.89L11.5,55c-.13-.27-.23-.47-.32-.68-.89-2-1.78-4.07-2.66-6.11A.47.47,0,0,0,8,47.9l-7.73.48A1.09,1.09,0,0,1,0,48.37Z"/><path class="cls-1" d="M32.89,55,23.75,39.21c.92-.62,1.82-1.23,2.74-1.81a2.52,2.52,0,0,1,1.94-.22l1.81.38a2,2,0,0,0,2.21-1c.33-.51.6-1.05.92-1.56a7.76,7.76,0,0,1,.9-1.33,6.33,6.33,0,0,1,1.19-.8l8.92,15.46c-.15,0-.25,0-.34,0-2.55-.15-5.11-.3-7.66-.47a.44.44,0,0,0-.51.33l-2.74,6.28Z"/><path class="cls-1" d="M22.21,5.62A13.36,13.36,0,1,1,8.83,19,13.38,13.38,0,0,1,22.21,5.62ZM31,14.52,28.74,12.3l-8.89,8.92L15.66,17l-2.2,2.18,6.42,6.43Z"/></g></g></svg>