<svg xmlns="http://www.w3.org/2000/svg" viewBox="0 0 50.36 50.33"><defs><style>.cls-1{fill:#fff;}</style></defs><g id="Layer_2" data-name="Layer 2"><g id="Layer_1-2" data-name="Layer 1"><path class="cls-1" d="M24.05,0h2.23l.21,0a27.51,27.51,0,0,1,3.13.36,25.14,25.14,0,0,1,20.71,23.9c0,.13,0,.27,0,.4v.94a.69.69,0,0,0,0,.13,25.44,25.44,0,0,1-.9,6.13,24.76,24.76,0,0,1-3,6.73,25.14,25.14,0,0,1-6,6.54,24.84,24.84,0,0,1-8,4.1,24,24,0,0,1-5.82,1l-.52,0H24.21l-.12,0-1.46-.11a23.37,23.37,0,0,1-3.6-.62A25.29,25.29,0,0,1,5.2,40.48,25.28,25.28,0,0,1,1.61,34a24.69,24.69,0,0,1-1.56-7.4c0-.21,0-.41,0-.62V24.31a.77.77,0,0,0,0-.15,26.66,26.66,0,0,1,.29-3A25.25,25.25,0,0,1,15.68,1.84,24.73,24.73,0,0,1,23.49.05ZM8.47,41.27a1,1,0,0,0,0-.16A31.39,31.39,0,0,1,9,37.9a14.17,14.17,0,0,1,1.69-4.56,7.57,7.57,0,0,1,2.69-2.76,7.39,7.39,0,0,1,3.42-1,2.15,2.15,0,0,1,1.23.19c.47.25.93.5,1.38.78a17.36,17.36,0,0,0,2,1.18,8.72,8.72,0,0,0,5.39.75,11.14,11.14,0,0,0,4.62-2.15,3.38,3.38,0,0,1,2.31-.75,7.21,7.21,0,0,1,5.66,3.14,13,13,0,0,1,1.9,4.22,20.61,20.61,0,0,1,.58,3.75c0,.2,0,.39,0,.6a23.2,23.2,0,1,0-33.39,0Z"/><path class="cls-1" d="M34.63,19.93a9.69,9.69,0,1,1-9.27-9.8A9.74,9.74,0,0,1,34.63,19.93Z"/></g></g></svg>