<svg xmlns="http://www.w3.org/2000/svg" viewBox="0 0 50.82 50.15"><defs><style>.cls-1{fill:#fff;}</style></defs><g id="Layer_2" data-name="Layer 2"><g id="Layer_1-2" data-name="Layer 1"><path class="cls-1" d="M8.93,50.15,0,41.5C1.08,40,2.09,38.42,3.23,37s2.41-2.85,3.67-4.23a7.44,7.44,0,0,1,5.15-2.32c3.18-.26,6.37-.43,9.53-.81,2.72-.32,5.41-.88,8.12-1.31a18.64,18.64,0,0,1,2.37-.22,1.49,1.49,0,0,1,1.6,1.26,3.63,3.63,0,0,1-1.07,3.3,7.57,7.57,0,0,1-3.76,2.17c-1.46.41-2.92.85-4.38,1.28-.16,0-.32.12-.49.19v.13c1.08.14,2.17.32,3.26.41A16.11,16.11,0,0,0,34,36.33a34.23,34.23,0,0,0,4.13-1.91c1.61-.8,3.17-1.7,4.79-2.48A6.33,6.33,0,0,1,46,31.22,3.5,3.5,0,0,1,48.1,32a1.57,1.57,0,0,1,.11,2.51,41.75,41.75,0,0,1-6.94,5.27c-1.36.85-2.77,1.6-4.18,2.36A19.43,19.43,0,0,1,28,44.42c-3.57,0-7.14.19-10.71.3a5.58,5.58,0,0,0-2.76,1,31.88,31.88,0,0,0-5,3.94C9.3,49.79,9.14,50,8.93,50.15Z"/><path class="cls-1" d="M42.07,8.27c-.74.62-1.5,1.22-2.21,1.87A35.24,35.24,0,0,0,34.15,17a4.49,4.49,0,0,1-.42.62.61.61,0,0,1-.44.2.53.53,0,0,1-.29-.4,17.79,17.79,0,0,1,0-3A15.35,15.35,0,0,1,37.7,6.05a15.08,15.08,0,0,1,7.21-3.86c1.73-.43,3.5-.65,5.26-.93.57-.09.69.08.64.64a19.47,19.47,0,0,1-3,9A20,20,0,0,1,39,18.62a7.13,7.13,0,0,1-3.53.62c-.63-.06-.73-.23-.47-.79a31.32,31.32,0,0,1,4.3-6.81c.92-1.13,1.91-2.19,2.87-3.28Z"/><path class="cls-1" d="M23.65,14c1.21,1.44,2.45,2.86,3.62,4.33a27.53,27.53,0,0,1,3.31,5.45c.25.53.13.73-.45.77a8.47,8.47,0,0,1-5-1.39,19.28,19.28,0,0,1-9.38-13.08c-.13-.68-.2-1.38-.28-2.07-.06-.53,0-.66.59-.62a27.84,27.84,0,0,1,6.25,1.26,14,14,0,0,1,6.25,3.94A14.14,14.14,0,0,1,32.4,20a14.54,14.54,0,0,1,.07,2.47,2.18,2.18,0,0,1-.31.75,2.66,2.66,0,0,1-.6-.5,33.58,33.58,0,0,0-4.42-5.65C26,16,24.84,15,23.69,13.92Z"/><path class="cls-1" d="M27.24,4.54c1.12,1.51,2.26,3,3.35,4.53a13.12,13.12,0,0,1,.92,1.69c.28.54.2.72-.41.66A6.2,6.2,0,0,1,29,11a12.38,12.38,0,0,1-6.92-7.9A25.67,25.67,0,0,1,21.54.48c-.05-.29,0-.51.37-.48a13.33,13.33,0,0,1,6.82,2.15,9.19,9.19,0,0,1,4.15,7.46,1,1,0,0,1,0,.39c-.06.19-.15.37-.23.56a2.25,2.25,0,0,1-.43-.37A21.53,21.53,0,0,0,27.76,5l-.59-.45Z"/></g></g></svg>