<svg xmlns="http://www.w3.org/2000/svg" viewBox="0 0 43.44 61.66"><defs><style>.cls-1{fill:#fff5fb;}</style></defs><g id="Layer_2" data-name="Layer 2"><g id="Layer_1-2" data-name="Layer 1"><path class="cls-1" d="M2,61.66.86,61.05a1.26,1.26,0,0,1-.63-1.94C1.61,56.23,3,53.36,4.4,50.49q4.38-9.06,8.75-18.12c.54-1.1,1-1.29,2.16-.75l1.13.54c1,.49,1.17,1,.69,2Q15.06,38.5,13,42.81L4.36,60.61l-.52,1Z"/><path class="cls-1" d="M11.13,29.27c-1.51,0-3,0-4.52,0a4.83,4.83,0,0,1-1.13-.33,4.53,4.53,0,0,1,.41-1.12C7.47,25.56,9,23.3,10.7,21.09a3.94,3.94,0,0,0,.53-4.15c-1-2.55-1.91-5.16-2.83-7.75a4.58,4.58,0,0,1-.09-1.12A3.94,3.94,0,0,1,9.49,8c2.77.84,5.52,1.72,8.28,2.6A3.51,3.51,0,0,0,21.28,10c2.1-1.68,4.23-3.32,6.34-5a2.8,2.8,0,0,1,.5-.37c.35-.14.76-.38,1.05-.28s.34.62.34.95c0,2.9,0,5.79.08,8.68a4.68,4.68,0,0,0,.15,1.24,3.27,3.27,0,0,0,1.4,1.83c2.37,1.58,4.74,3.16,7.08,4.78a6.21,6.21,0,0,1,.93,1,5.34,5.34,0,0,1-1.16.75c-2.58.9-5.17,1.77-7.77,2.59a3.75,3.75,0,0,0-2.73,2.84c-.7,2.64-1.47,5.26-2.26,7.87a5.86,5.86,0,0,1-.7,1.2,5.53,5.53,0,0,1-1.08-.88c-1.71-2.25-3.38-4.52-5.05-6.8a3.39,3.39,0,0,0-3-1.48c-1.41,0-2.82,0-4.23,0Z"/><path class="cls-1" d="M39.93,17.1c-.86,0-1.26-.33-1.42-.94a1.06,1.06,0,0,1,.76-1.3,24.28,24.28,0,0,1,2.92-.57,1.06,1.06,0,0,1,1.21.91,1.07,1.07,0,0,1-.77,1.31C41.68,16.77,40.7,16.94,39.93,17.1Z"/><path class="cls-1" d="M15.13,3.45c-.36.41-.59.9-1,1A1.34,1.34,0,0,1,13,4.23a16.35,16.35,0,0,1-1.56-3c-.1-.27.26-.9.57-1.11s1-.17,1.18,0C13.86,1.17,14.44,2.27,15.13,3.45Z"/><path class="cls-1" d="M34,35.36a4.86,4.86,0,0,1-1,1A.9.9,0,0,1,31.72,36a25,25,0,0,1-1.32-2.88,1.12,1.12,0,0,1,1.87-1.06C32.89,33.07,33.38,34.17,34,35.36Z"/><path class="cls-1" d="M3.16,22.15a1.25,1.25,0,0,1-1.37-.94,1,1,0,0,1,.7-1.27,28.81,28.81,0,0,1,2.88-.71,1.08,1.08,0,0,1,1.25.85A1.07,1.07,0,0,1,6,21.43C5,21.72,4,21.94,3.16,22.15Z"/></g></g></svg>