<svg xmlns="http://www.w3.org/2000/svg" viewBox="0 0 29.98 29.99"><defs><style>.cls-1{fill:#fff;}</style></defs><g id="Layer_2" data-name="Layer 2"><g id="Layer_1-2" data-name="Layer 1"><path class="cls-1" d="M30,28.06a13.07,13.07,0,0,0-.21-1.94,13.35,13.35,0,0,0-9.65-10.68,12.78,12.78,0,0,0-3.72-.51,7.52,7.52,0,0,0,6.13-7.35v0A7.5,7.5,0,0,0,15,0h0a7.54,7.54,0,0,0-1.35,14.94,15,15,0,0,0-3,.33A13.68,13.68,0,0,0,0,28.37a1.67,1.67,0,0,0,.42,1.2A1.64,1.64,0,0,0,1.61,30H28.35a1.63,1.63,0,0,0,1.24-.47A1.54,1.54,0,0,0,30,28.31ZM10.32,7.39a4.69,4.69,0,0,1,4.6-4.54H15A4.81,4.81,0,0,1,18.38,4.3a4.71,4.71,0,0,1,1.28,3.39,4.64,4.64,0,0,1-4.8,4.52A4.7,4.7,0,0,1,10.32,7.39ZM2.94,27.11c.07-.44.14-.86.24-1.26a10.73,10.73,0,0,1,10.41-8.06h1a28.72,28.72,0,0,1,3.22.1A10.63,10.63,0,0,1,27,26.64c0,.16.05.31.07.47Z"/></g></g></svg>