<svg xmlns="http://www.w3.org/2000/svg" viewBox="0 0 129.82 73.63"><defs><style>.cls-1{fill:#126c69;}</style></defs><g id="Layer_2" data-name="Layer 2"><g id="Layer_1-2" data-name="Layer 1"><path class="cls-1" d="M0,1.07A2.86,2.86,0,0,1,2.53,0c3.3.06,6.59,0,9.89,0,1.8,0,2.33.54,2.33,2.35q0,11.85,0,23.7v1.35c.18,0,.29.06.33,0A14.08,14.08,0,0,1,26,23.54c1.56.07,3.13.07,4.69,0,4.4-.22,8.39.73,11.86,4.3,0-.88,0-1.39,0-1.9,0-1.9.49-2.37,2.43-2.39h.38q33.4,0,66.8,0c5.74,0,10.47,2,14.07,6.49a16.19,16.19,0,0,1,3.6,10.32c0,10.31,0,20.62,0,30.93,0,1.76-.59,2.34-2.37,2.34q-5.5,0-11,0c-1.73,0-2.23-.49-2.34-2.24a10.51,10.51,0,0,0-10-10c-.42,0-.85-.05-1.27-.05H27.08a11.35,11.35,0,0,0-5.86,1.3,10.42,10.42,0,0,0-5.49,8.85c-.1,1.57-.65,2.15-2.17,2.16-3.8,0-7.61.06-11.41,0-.72,0-1.43-.65-2.15-1ZM126.2,49H14c-2.34,0-2.8-.46-2.8-2.82V3.67H3.64V70.06H9.93c2.2,0,2.2,0,2.77-2,.1-.33.2-.65.32-1,2.1-5.73,7.3-9.26,13.76-9.26H103l1.15,0a14,14,0,0,1,13.09,10.64l.38,1.52h8.63ZM62,27.1V45.36h64.31c-.1-3,.28-6-.64-9a13.59,13.59,0,0,0-13.47-9.32c-16.26.1-32.53,0-48.8,0Zm-15.79.07V45.35H58.24V27.17ZM14.87,38.63v6.72H42.4V38.63ZM42.25,35a9.4,9.4,0,0,0-8.55-7.82c-3.37-.15-6.75-.1-10.12,0a8.55,8.55,0,0,0-3.26.87A9.57,9.57,0,0,0,14.94,35Z" transform="translate(0 0)"/></g></g></svg>