<svg xmlns="http://www.w3.org/2000/svg" viewBox="0 0 100 91.05"><defs><style>.cls-1{opacity:0.64;}.cls-2{fill:#a25359;}</style></defs><g id="Layer_2" data-name="Layer 2"><g id="Layer_1-2" data-name="Layer 1"><g class="cls-1"><path class="cls-2" d="M100,28.79V83.9c-2.36,5.7-4.54,7.15-10.78,7.15h-66c-6.76,0-10.1-3.31-10.1-10.06q0-19.77,0-39.53c0-.78.06-1.56.1-2.52h12.9V25.87H39.1V12.77h2.66c7.85,0,15.7.13,23.54-.07,2.9-.07,5.08.5,6.82,2.94a27.56,27.56,0,0,0,4.2,4.57,5.25,5.25,0,0,0,3,1.3c3.25.16,6.51.06,9.77.06C95.63,21.57,97.59,22.87,100,28.79ZM78.36,56.21c-.23-12.34-10.07-22.1-22.09-21.9A22,22,0,0,0,34.69,56.93c.24,11.73,10.39,21.3,22.42,21.13C68.63,77.9,78.58,67.68,78.36,56.21Z"/><path class="cls-2" d="M0,12.79H13.12V0h8.59V12.89h13v8.68H21.89V34.42H13.17V21.23H0Z"/><path class="cls-2" d="M56.62,42.45a13.94,13.94,0,1,1-14,13.61A13.89,13.89,0,0,1,56.62,42.45Z"/></g></g></g></svg>