<svg xmlns="http://www.w3.org/2000/svg" viewBox="0 0 38.54 36.79"><defs><style>.cls-1{fill:#fff;}</style></defs><g id="Layer_2" data-name="Layer 2"><g id="Layer_1-2" data-name="Layer 1"><path class="cls-1" d="M30.45,30.42a3.88,3.88,0,0,1-.4,5.47,3.76,3.76,0,0,1-4.93-.06,3.86,3.86,0,0,1-.36-5.39H16.58a3.83,3.83,0,0,1,.83,3.44,3.68,3.68,0,0,1-1.48,2.19,3.74,3.74,0,0,1-4.83-.37,3.86,3.86,0,0,1-.2-5.28H10a1,1,0,0,1-1.05-1,1.43,1.43,0,0,1,.1-.61c.4-1.16.82-2.32,1.23-3.48a2.83,2.83,0,0,0,.09-.27c-.21,0-.4,0-.58,0A1.24,1.24,0,0,1,8.5,24.06c-.36-1.95-.71-3.9-1.07-5.86C6.61,13.68,5.77,9.15,5,4.63a1,1,0,0,0-.74-.89C3.08,3.35,2,2.9.81,2.46A1.23,1.23,0,0,1,0,1.27,1.25,1.25,0,0,1,.79.1a1.14,1.14,0,0,1,.87,0L6.44,1.89a1.22,1.22,0,0,1,.77,1c.34,1.85.67,3.7,1,5.55q1.13,6.15,2.24,12.29c.1.56.21,1.11.3,1.67,0,.16.09.22.25.2H30.39a.37.37,0,0,0,.42-.28l4.62-11.92c0-.11.09-.22.14-.36l-.28,0L16.13,9.69l-2.25,0a1.28,1.28,0,0,1-1.42-1.32c0-.76.6-1.24,1.48-1.23l14.86.27c2.8.06,5.6.1,8.4.15a1.28,1.28,0,0,1,1.23,1.82L34.07,20.91l-1.23,3.25a1.26,1.26,0,0,1-1.38.95q-9.29,0-18.57,0a.36.36,0,0,0-.41.28c-.29.88-.61,1.75-.93,2.62,0,.08-.05.16-.09.28H31.39a2.07,2.07,0,0,1,.43,0,1,1,0,0,1,.83,1.16,1.06,1.06,0,0,1-1,.94Zm-2.83.86A1.69,1.69,0,1,0,29.3,33,1.68,1.68,0,0,0,27.62,31.28Zm-13.88,0a1.69,1.69,0,0,0,0,3.38,1.69,1.69,0,0,0,0-3.38Z"/></g></g></svg>