<svg xmlns="http://www.w3.org/2000/svg" viewBox="0 0 62.65 94.94"><defs><style>.cls-1{fill:#126c69;}</style></defs><g id="Layer_2" data-name="Layer 2"><g id="Layer_1-2" data-name="Layer 1"><path class="cls-1" d="M26.9,58.58H12.47c-.4,3-.79,6-1.19,9Q9.84,78.67,8.39,89.74c-.15,1.18-.3,2.35-.46,3.53A1.65,1.65,0,0,1,6,94.93H2.07C.53,94.93,0,94.4,0,92.84Q0,76.09,0,59.32C0,57,0,54.7,0,52.4a6.3,6.3,0,0,1,6.48-6.51c3.86,0,7.71,0,11.57,0h1.17c.39-2.2.77-4.37,1.14-6.53q2.93-17,5.86-34c0-.23.06-.46.1-.69C26.87,1.43,28.55,0,31.84,0H57.45c3.71,0,5.71,2.37,5.08,6Q59,26.58,55.47,47.12a9,9,0,0,0-.09,1.37V92.6c0,1.89-.44,2.33-2.31,2.33H49.31a1.62,1.62,0,0,1-1.85-1.62Q45.68,79.65,43.9,66c-.32-2.45-.66-4.9-1-7.39H39.37c-.33,2.52-.67,5-1,7.53q-1.44,11-2.86,21.94c-.22,1.73-.46,3.46-.69,5.19a1.65,1.65,0,0,1-1.9,1.68H29c-1.55,0-2.08-.52-2.08-2.07V58.58Zm-4.43-12.7H44.12c2.05,0,2,0,2.37-2Q49.4,26.94,52.33,10c.39-2.26.77-4.51,1.17-6.83H31.75c-1.59,0-2,.37-2.28,2q-3,17.57-6.06,35.13C23.1,42.1,22.79,43.94,22.47,45.88Zm29.75,9.48c0-1.36,0-2.64,0-3.92A38.16,38.16,0,0,1,52.78,44C55,31.15,57.22,18.3,59.44,5.46c.21-1.25-.18-2.06-1.14-2.26s-1.67.42-1.89,1.66C56,7.23,55.6,9.6,55.19,12q-3,17.66-6.1,35.31c-.24,1.41-.68,1.77-2.12,1.77H35.11c-.34,0-.68,0-1.14.05,1.22,2,.68,4.19.91,6.26Zm-20.58,0c0-1.18.05-2.27,0-3.35a3.09,3.09,0,0,0-3.05-2.93q-11.17,0-22.34,0a3,3,0,0,0-3,2.63c-.12,1.2,0,2.41,0,3.65ZM9.27,58.62h-6v33.1H5C6.39,80.69,7.82,69.69,9.27,58.62ZM31.85,91.73c1.44-11.07,2.88-22.08,4.31-33.11h-6V91.73ZM46.11,58.59q2.18,16.62,4.32,33.11h1.71V58.59Z" transform="translate(0 0)"/></g></g></svg>