<svg xmlns="http://www.w3.org/2000/svg" viewBox="0 0 91.03 80.69"><defs><style>.cls-1{fill:#a25359;}</style></defs><g id="Layer_2" data-name="Layer 2"><g id="Layer_1-2" data-name="Layer 1"><path class="cls-1" d="M0,26.82a4.29,4.29,0,0,1,1.16-1.88c.23-.23.2-.38,0-.61-.06-.06-.13-.1-.08-.22s.15-.05.22,0L3.5,25c.08,0,.18,0,.13.17s-.12.09-.21.08a3.72,3.72,0,0,0-1.2-.07,2.07,2.07,0,0,0-1.66,2,1.09,1.09,0,0,0,1.68,1A12.75,12.75,0,0,0,4.1,26.7c.27-.21.53-.42.8-.61A2.11,2.11,0,0,1,7.39,26a2.32,2.32,0,0,1,.91,2.4A3.67,3.67,0,0,1,7.48,30c-.16.19-.31.39-.46.58s-.17.4.06.56c.07.05.15.1.09.21s-.14.06-.22,0l-2.18-.86c-.08,0-.18-.05-.15-.17s.15-.11.24-.09a4.43,4.43,0,0,0,1,.06,2.27,2.27,0,0,0,1.87-2.48A1.23,1.23,0,0,0,6.05,27a4.52,4.52,0,0,0-1.12.76c-.53.42-1,.85-1.6,1.23a2.05,2.05,0,0,1-2.79-.21,3.7,3.7,0,0,1-.54-1Z" transform="translate(0 0)"/><path class="cls-1" d="M36.69,80.69a1.21,1.21,0,0,0-.45-.12,2,2,0,0,1-1.32-2.49,2,2,0,0,1,2.23-1.45,1.77,1.77,0,0,1,1.56,2c0,.18-.05.24-.23.23-.63-.06-1.26-.09-1.89-.15s-.54,0-.49.47a1,1,0,0,0,.66,1A1.13,1.13,0,0,0,38,79.91l.29-.3c.08-.11.16-.13.27,0a.17.17,0,0,1,0,.27,1.92,1.92,0,0,1-1.15.78s-.12,0-.15.07Zm1-2.82V77.7a.74.74,0,0,0-.56-.69.7.7,0,0,0-.81.44,2.36,2.36,0,0,0-.19.64c0,.17,0,.21.17.22s.57,0,.85.06C37.63,78.4,37.7,78.34,37.7,77.87Z" transform="translate(0 0)"/><path class="cls-1" d="M40,68.43a11.52,11.52,0,0,0,1.45-1.16,40.94,40.94,0,0,0,8.44-10.54l.44-.76H54.6a17.91,17.91,0,0,1-.84,2.21,39.57,39.57,0,0,1-5.23,9c-.59.77-1.21,1.51-1.87,2.22a.8.8,0,0,1-.43.24,32,32,0,0,1-5.69.83,31.48,31.48,0,0,1-5.14-.16A30.21,30.21,0,0,1,13,55.73l0,0a.57.57,0,0,1,.31,0,1.15,1.15,0,0,0,.75.12c.41-.05.83,0,1.25,0a8.08,8.08,0,0,0,1.2,0c.79-.12,1.58,0,2.37,0s1.3,0,2,0c.94,0,1.88,0,2.82,0h1.75a6.56,6.56,0,0,0,0,1.33A2,2,0,0,0,28,58.9a8,8,0,0,0,2.31-1.12A10.91,10.91,0,0,1,36.73,56a3.42,3.42,0,0,1,2.6,1.08,4,4,0,0,1,.85,2A11.68,11.68,0,0,1,40,64.05c-.06.3-.13.59-.21,1a6.22,6.22,0,0,0,.94-1,16.24,16.24,0,0,0,3.59-9.1.21.21,0,0,1,0-.11s.1.1.09.13c-.13.38.15.28.32.28H48c-.32,1-.73,1.91-1.14,2.85a34.48,34.48,0,0,1-4.5,7.72,24,24,0,0,1-2.13,2.37c-.08.08-.14.17-.22.25a.05.05,0,0,0,0,.07l0,0,0,0,0,0Zm-.22.15h0Z" transform="translate(0 0)"/><path class="cls-1" d="M58.39,17.27a23.54,23.54,0,0,1,2.42,2.26,30,30,0,0,1,7.42,13.36q.31,1.22.51,2.46a2.62,2.62,0,0,1-.74.06h-5a3.5,3.5,0,0,1-.79.05,6.54,6.54,0,0,0-1.4-.05c-.31-.83-.59-1.67-1-2.48a23.51,23.51,0,0,0-5.3-7.41,65.55,65.55,0,0,0-7-5.74c-1.06-.77-2.13-1.52-3.13-2.37,0-.14.12-.13.22-.14.33,0,.66,0,1,0,.92.05,1.85,0,2.78,0s2.14,0,3.21,0,1.88-.05,2.82,0c.69,0,1.39,0,2.08,0S57.77,17.27,58.39,17.27Z" transform="translate(0 0)"/><path class="cls-1" d="M8.83,38.55a29.33,29.33,0,0,1,2.34-10A30,30,0,0,1,16,20.81a26.81,26.81,0,0,1,4-3.89,6.58,6.58,0,0,1,1.25-.09c.34-.06.67.08,1,0s.49-.05.54.28c-.24.37-.51.73-.73,1.11a16.24,16.24,0,0,0-2,6.34,11.31,11.31,0,0,0,.36,3.52c.12.55.25,1.1.38,1.64.05.2,0,.29-.19.38a4.61,4.61,0,0,1-4.11,0,.19.19,0,0,0-.18,0,4.91,4.91,0,0,0,4.56,1.37c.22,0,.26,0,.29.21a10.21,10.21,0,0,1-1.4,6.78c-.23.41-.44.82-.66,1.22-.67,0-1.34,0-2,0-.35,0-.7-.08-1.05-.06a7.21,7.21,0,0,1-1.31,0,10.44,10.44,0,0,0-1.25,0c-.67,0-1.34,0-2,0a1.69,1.69,0,0,0-.32,0l-1.3,0a5.68,5.68,0,0,0-1,0,8.35,8.35,0,0,1,0-1C8.91,38.68,8.91,38.62,8.83,38.55Z" transform="translate(0 0)"/><path class="cls-1" d="M25.35,55.85H23.6c-.94,0-1.88,0-2.82,0-.66,0-1.32-.08-2,0s-1.58-.08-2.37,0a8.08,8.08,0,0,1-1.2,0c-.42,0-.84-.05-1.25,0a1.15,1.15,0,0,1-.75-.12.57.57,0,0,0-.31,0,28.69,28.69,0,0,1-2-4,31.79,31.79,0,0,1-1.08-3.16c0-.11,0-.23-.07-.34a5.2,5.2,0,0,0,1,.07c.6,0,1.19,0,1.78,0,.38,0,.77.07,1.14,0,.72-.05,1.44,0,2.16,0s1.35.08,2,0c.46,0,.94.19,1.39-.08.32.17.67,0,1,.06a4,4,0,0,0,1,0,13.8,13.8,0,0,1,1.93,0c.17,0,.3,0,.29-.22a.55.55,0,0,1,.46.88c-.13.21-.32.37-.47.57a.66.66,0,0,0,.1,1,3.73,3.73,0,0,0,.84.5,2.23,2.23,0,0,1,1.23,2.51C25.66,54.35,25.49,55.1,25.35,55.85Z" transform="translate(0 0)"/><path class="cls-1" d="M23.59,48.1c0,.21-.12.23-.29.22a13.8,13.8,0,0,0-1.93,0,4,4,0,0,1-1,0c-.33-.07-.68.11-1-.06-.45.27-.93,0-1.39.08-.66.06-1.34-.08-2,0s-1.44,0-2.16,0c-.37,0-.76-.06-1.14,0-.59,0-1.18,0-1.78,0a5.2,5.2,0,0,1-1-.07,22.64,22.64,0,0,1-.73-3.46,29.62,29.62,0,0,1-.32-4.7c0-.11,0-.22,0-.33a5.68,5.68,0,0,1,1,0l1.3,0a1.69,1.69,0,0,1,.32,0c.67,0,1.34,0,2,0a10.44,10.44,0,0,1,1.25,0,7.21,7.21,0,0,0,1.31,0c.35,0,.7.1,1.05.06.67-.07,1.34,0,2,0-.19.49-.44,1-.58,1.45a4.64,4.64,0,0,0-.16.81,1.16,1.16,0,0,0,1.26,1.41,7.3,7.3,0,0,0,1.55-.19,2.62,2.62,0,0,1,1.08,0,1.08,1.08,0,0,1,.89,1.43,4.22,4.22,0,0,1-.43,1,3.31,3.31,0,0,0-.4,1,1,1,0,0,0,.64,1.32A7.29,7.29,0,0,0,23.59,48.1Z" transform="translate(0 0)"/><path class="cls-1" d="M33.46,34.77a23.82,23.82,0,0,1-2-3,22.75,22.75,0,0,1-2.72-7.27,17.06,17.06,0,0,1-.16-4.34,11.48,11.48,0,0,1,.17-1.55.67.67,0,0,1,.44-.12h3.25c.1.74.17,1.49.33,2.22a21.41,21.41,0,0,0,2.45,5.91c1.2,2.08,2.61,4,3.94,6,.44.66.9,1.32,1.28,2-.13,0-.13.18-.29.15a9.49,9.49,0,0,0-1.41,0,4,4,0,0,1-.78.06,5,5,0,0,0-1.16-.06c-.12,0-.2,0-.21.18s0,.15-.09.16a.13.13,0,0,1-.14-.12c0-.24-.21-.24-.38-.21a3.17,3.17,0,0,1-.87,0c-.22,0-.4.13-.61.06A2.7,2.7,0,0,0,33.46,34.77Z" transform="translate(0 0)"/><path class="cls-1" d="M68.63,46A20.52,20.52,0,0,1,68,48.54a28.71,28.71,0,0,1-2.79,6.67c-.44.77-.94,1.5-1.42,2.25a6.22,6.22,0,0,1-1.14,0l-2.44,0c-.5,0-1,0-1.5,0a.85.85,0,0,1-.56-.13c.36-.8.74-1.6,1.09-2.41a33,33,0,0,0,2.18-7.28c.11-.62.19-1.24.29-1.86a.18.18,0,0,1,.19.15c0,.08.05.14.14.12.25,0,.51,0,.77,0a1.74,1.74,0,0,1,1,0,1.4,1.4,0,0,0,.58.06,13.46,13.46,0,0,1,1.68,0,2.18,2.18,0,0,0,.95-.1.73.73,0,0,1,.44,0C67.88,46,68.26,46.24,68.63,46Z" transform="translate(0 0)"/><path class="cls-1" d="M54.07,37.48a19.87,19.87,0,0,0-1.52-4.56,21.39,21.39,0,0,0-3-4.42c-2.46-3-5.18-5.76-7.87-8.55-.73-.75-1.48-1.49-2.14-2.3a2.19,2.19,0,0,1,.71-.14c.66,0,1.31.11,2,0,.79.8,1.57,1.62,2.38,2.39,1.73,1.64,3.52,3.2,5.21,4.87a29.79,29.79,0,0,1,4.76,5.8A19.33,19.33,0,0,1,57,37.37s0,0,0,.05Z" transform="translate(0 0)"/><path class="cls-1" d="M58.39,17.27c-.62,0-1.24,0-1.86,0s-1.39,0-2.08,0c-.94,0-1.88,0-2.82,0s-2.14,0-3.21,0-1.86,0-2.78,0c-.32,0-.65,0-1,0-.1,0-.2,0-.22.14a23.86,23.86,0,0,1-3.85-3.8c0-.06.07-.12.15-.12a11.94,11.94,0,0,1,1.46-.05c.62,0,1.23,0,1.85,0s1.2,0,1.8,0,1.26.07,1.89,0,1.07,0,1.61,0,.8.07,1.19,0a10.31,10.31,0,0,1,1.47,0,.67.67,0,0,0,.44-.08,25.52,25.52,0,0,1,3.47,2A22.72,22.72,0,0,1,58.39,17.27Z" transform="translate(0 0)"/><path class="cls-1" d="M49.79,42.16A8.66,8.66,0,0,1,50,43.67,20.32,20.32,0,0,1,50,46.79c-.12.07-.1.15,0,.24l0,.35a1.24,1.24,0,0,1-.43.06H43.14A26,26,0,0,0,39,41.27s0,0,0-.06a1.83,1.83,0,0,0,.46.12c.8,0,1.6,0,2.4,0a3.23,3.23,0,0,1,.76,0,.72.72,0,0,0,.73-.15c.14,0,0-.16.1-.22a1.72,1.72,0,0,1,.6,0,2,2,0,0,0,.92,0c.21,0,.47,0,.6-.23a14.09,14.09,0,0,1,.28,2,16.9,16.9,0,0,1,0,3.1,1.77,1.77,0,0,0,0,.7,17.51,17.51,0,0,0,1.7-4.3c.34,0,.66.11,1,.06a2.65,2.65,0,0,1,.79-.05A.76.76,0,0,0,49.79,42.16Z" transform="translate(0 0)"/><path class="cls-1" d="M58.19,57.39a.85.85,0,0,0,.56.13c.5,0,1-.05,1.5,0l2.44,0a6.22,6.22,0,0,0,1.14,0,16.17,16.17,0,0,1-1.49,2,30.23,30.23,0,0,1-12.9,9.21,2.8,2.8,0,0,1-.31.09h0c0-.09.06-.12.11-.16a36.45,36.45,0,0,0,8.84-11A1.63,1.63,0,0,1,58.19,57.39Z" transform="translate(0 0)"/><path class="cls-1" d="M60.86,35.41a6.54,6.54,0,0,1,1.4.05,3.5,3.5,0,0,0,.79-.05h5a2.62,2.62,0,0,0,.74-.06A14.21,14.21,0,0,1,69,37.07s0,.09,0,.12l0,.48s0,.08,0,.11a23.49,23.49,0,0,1,.11,3.14,1.51,1.51,0,0,0-.47,0c-.48.13-1-.18-1.46,0,0,0,0,0,0,0a1.06,1.06,0,0,0-.68,0,.94.94,0,0,1-.44,0,11.18,11.18,0,0,0-1.92-.08c-.75,0-1.5,0-2.25,0l-.21-1.7a23.68,23.68,0,0,0-.77-3.61A1.18,1.18,0,0,1,60.86,35.41Z" transform="translate(0 0)"/><path class="cls-1" d="M43.14,47.44h6.43a1.24,1.24,0,0,0,.43-.06,17.37,17.37,0,0,1-.42,3,13.41,13.41,0,0,1-.76,2.48c-.32.76-.48,1.58-.85,2.31H44.74c-.17,0-.45.1-.32-.28,0,0-.06-.09-.09-.13a20.32,20.32,0,0,0-.16-3.66,15.36,15.36,0,0,0-1-3.52A.85.85,0,0,1,43.14,47.44Z" transform="translate(0 0)"/><path class="cls-1" d="M43.36,41.14a.72.72,0,0,1-.73.15,3.23,3.23,0,0,0-.76,0c-.8,0-1.6,0-2.4,0a1.83,1.83,0,0,1-.46-.12l-3.34-3.74c-.73-.82-1.44-1.66-2.1-2.53,0,0-.07-.12-.11-.17a2.7,2.7,0,0,1,1,.07c.21.07.39-.08.61-.06a3.17,3.17,0,0,0,.87,0c.17,0,.34,0,.38.21a.13.13,0,0,0,.14.12c.09,0,.08-.09.09-.16s.09-.18.21-.18a5,5,0,0,1,1.16.06,4,4,0,0,0,.78-.06,9.49,9.49,0,0,1,1.41,0c.16,0,.16-.17.29-.15a23.47,23.47,0,0,1,2.35,4.6C43,39.86,43.17,40.51,43.36,41.14Z" transform="translate(0 0)"/><path class="cls-1" d="M61.88,40.92c.75,0,1.5,0,2.25,0a11.18,11.18,0,0,1,1.92.08.94.94,0,0,0,.44,0,1.06,1.06,0,0,1,.68,0s0,0,0,0c.49-.16,1,.15,1.46,0a1.51,1.51,0,0,1,.47,0,10.68,10.68,0,0,1-.05,1.13c-.07.06-.07.11,0,.17l-.06.72c-.05,0-.06.07,0,.11l0,.42c-.07.05-.08.1,0,.17a.88.88,0,0,1,0,.36c-.06,0-.09.06,0,.12-.06.37-.11.75-.18,1.12a3.47,3.47,0,0,1-.1.72c-.37.28-.75.06-1.12,0a.73.73,0,0,0-.44,0,2.18,2.18,0,0,1-.95.1,13.46,13.46,0,0,0-1.68,0,1.4,1.4,0,0,1-.58-.06,1.74,1.74,0,0,0-1,0c-.26.07-.52,0-.77,0-.09,0-.13,0-.14-.12a.18.18,0,0,0-.19-.15c.09-1.22.2-2.43.17-3.65A10.71,10.71,0,0,1,61.88,40.92Z" transform="translate(0 0)"/><path class="cls-1" d="M52.45,13.36a.67.67,0,0,1-.44.08,10.31,10.31,0,0,0-1.47,0c-.39,0-.8-.06-1.19,0s-1.07,0-1.61,0-1.26,0-1.89,0-1.21.08-1.8,0-1.23,0-1.85,0a11.94,11.94,0,0,0-1.46.05c-.08,0-.12.06-.15.12a16.47,16.47,0,0,1-2.14-3.21c-.12-.22,0-.23.17-.23a25.58,25.58,0,0,1,2.63.08,30.28,30.28,0,0,1,11,3Z" transform="translate(0 0)"/><path class="cls-1" d="M73.42,25l-1.67.23-3.4.46a.17.17,0,0,1-.22-.08c-.07-.13,0-.18.09-.25l3.77-4c.48-.5.94-1,1.42-1.51a.83.83,0,0,0,.19-.93c0-.09-.1-.18,0-.24s.14.06.18.13L75,21c0,.08.15.19,0,.27s-.15-.08-.2-.15c-.27-.4-.55-.44-.9-.09-1.09,1-2.1,2.17-3.15,3.26l-.58.62,1.57-.22,2.07-.28a.72.72,0,0,0,.49-.24c.24-.29.51-.55.76-.83a1.07,1.07,0,0,0,.27-1.17c0-.07,0-.13,0-.18s.14,0,.18.08l1.27,2.48c0,.08.07.16,0,.22s-.14-.05-.17-.11c-.34-.52-.6-.57-1.06-.14-.92.85-1.73,1.79-2.59,2.68l-.8.85c0,.06-.17.11-.11.21s.14,0,.22,0l2.51-.36c.77-.11,1.54-.22,2.31-.35.6-.11.72-.34.52-.92,0-.08-.13-.18,0-.25s.17.07.22.15c.29.57.59,1.14.87,1.71,0,.08.16.16,0,.25s-.17,0-.22-.11A1,1,0,0,0,77.35,28l-4.68.67-2.51.36c-.11,0-.21.05-.28-.08s0-.2.1-.27c1.07-1.15,2.15-2.29,3.22-3.43C73.28,25.18,73.39,25.12,73.42,25Z" transform="translate(0 0)"/><path class="cls-1" d="M25.49,5.85c.07,1.63.14,3.22.2,4.82,0,.18.14.43-.1.53s-.3-.18-.41-.31q-2.38-2.7-4.74-5.41a.89.89,0,0,0-1-.36c-.06,0-.14,0-.18,0s0-.14.11-.17l2.45-1c.07,0,.13,0,.18,0s0,.14-.09.18c-.54.32-.59.54-.17,1,.83,1,1.68,2,2.52,2.94a11.59,11.59,0,0,0,.92,1,12.75,12.75,0,0,1-.07-1.47c0-.75-.07-1.5-.09-2.25A.57.57,0,0,0,24.81,5a11.82,11.82,0,0,0-1-1,.94.94,0,0,0-.9-.23c-.09,0-.19,0-.22-.07s.08-.13.15-.16l2.48-1c.09,0,.19-.13.25,0s-.09.14-.16.18c-.48.23-.56.49-.26.94a22.79,22.79,0,0,0,1.55,1.86c.56.66,1.14,1.31,1.71,2,.05.06.09.16.18.12s.05-.14,0-.22c-.05-1.34-.1-2.68-.16-4,0-.34-.05-.68-.1-1s-.31-.56-.72-.47l-.19.06c-.1,0-.16,0-.19-.07s0-.12.1-.15L29.31,1c.09,0,.18-.06.23.06s-.06.13-.12.16a.89.89,0,0,0-.46.87c0,1.11.08,2.22.12,3.34.05,1.36.13,2.72.19,4.08,0,.11.06.26-.11.33s-.23-.08-.31-.17l-3-3.48A1,1,0,0,0,25.49,5.85Z" transform="translate(0 0)"/><path class="cls-1" d="M54.6,56H50.35c.71-1.36,1.34-2.74,1.91-4.16.28-.7.52-1.42.78-2.13.06.15.2.12.33.13.51,0,1-.07,1.54,0a5.25,5.25,0,0,0,1.48,0,21.16,21.16,0,0,1-.71,2.82c-.23.68-.4,1.39-.61,2.08A8.09,8.09,0,0,1,54.6,56Z" transform="translate(0 0)"/><path class="cls-1" d="M54.07,37.48,57,37.42a11.57,11.57,0,0,1,.24,1.85A21.32,21.32,0,0,1,57.35,42a18.89,18.89,0,0,1-.14,2.38h-.44a19.55,19.55,0,0,1-2.54-.06.65.65,0,0,1,.05-.36c.07,0,.08-.07,0-.12l0-.53c.08,0,.09-.07,0-.12,0-.63.07-1.25.07-1.88A22.83,22.83,0,0,0,54.07,37.48Z" transform="translate(0 0)"/><path class="cls-1" d="M47.35,6.5a3.45,3.45,0,0,0,.72,2.3A2.88,2.88,0,0,0,51,9.75c.14,0,.18-.1.21-.22.21-.79.45-1.59.66-2.38.13-.54,0-.76-.51-1l-.09,0c-.09,0-.17-.07-.12-.19s.13-.06.2,0l2,.56.63.18c.09,0,.18,0,.16.17s-.14.07-.21.06c-.44-.09-.62,0-.8.4a2.64,2.64,0,0,0-.17.47,10.31,10.31,0,0,0-.54,1.83c-.07.66-.46.65-.92.69a5.49,5.49,0,0,1-3.83-1,3.91,3.91,0,0,1-1.24-4.77,4.18,4.18,0,0,1,6.52-1.75l.27.19c.36.25.38.24.64-.13,0-.06.07-.11.16-.09s.08.11.07.19c-.15.7-.28,1.41-.42,2.11,0,.08,0,.2-.13.19A.17.17,0,0,1,53.3,5a5.83,5.83,0,0,0-.1-.73,2.72,2.72,0,0,0-4.28-1.39,4.55,4.55,0,0,0-1.51,2.83A2.42,2.42,0,0,0,47.35,6.5Z" transform="translate(0 0)"/><path class="cls-1" d="M10,16.92c.5.3.93.69,1.41,1l2.15,1.5c.08,0,.21.08.18.2s-.14.15-.26.15l-5.93.4-1.77.11-.32.07.93.66,3,2.14.25.17c.53.33.8.28,1.18-.21l.05-.08c.05-.07.1-.16.21-.08s0,.16,0,.23L9.89,24.79l-.29.41c0,.07-.09.15-.19.08s-.07-.13,0-.2a.22.22,0,0,0,0-.08c.37-.57.33-.84-.22-1.24-.75-.56-1.52-1.1-2.28-1.64s-1.38-1-2.05-1.47a1,1,0,0,0-.85-.2,1.7,1.7,0,0,0-1,.57c0,.06-.09.2-.23.11s0-.17,0-.25c.35-.48.69-1,1-1.45a.29.29,0,0,1,.24-.14L8.82,19l2.57-.17a.17.17,0,0,0,.17-.08L9.31,17.09c0-.12,0-.24.17-.19A1.83,1.83,0,0,0,10,16.92Z" transform="translate(0 0)"/><path class="cls-1" d="M45.58,40.68c-.13.25-.39.18-.6.23a2,2,0,0,1-.92,0,1.72,1.72,0,0,0-.6,0c0-.68,0-1.36-.06-2a22.29,22.29,0,0,0-.93-4.72A53.23,53.23,0,0,0,39.52,27c-.28-.6-.58-1.2-.87-1.81.11-.05.14,0,.18.09a36.36,36.36,0,0,1,2,3.23,44.4,44.4,0,0,1,3.56,7.74,20.46,20.46,0,0,1,.83,2.87A13.67,13.67,0,0,1,45.58,40.68Z" transform="translate(0 0)"/><path class="cls-1" d="M54.23,44.36a19.55,19.55,0,0,0,2.54.06h.44a16.66,16.66,0,0,1-.4,3.16c-.16.72-.2,1.46-.42,2.17a5.25,5.25,0,0,1-1.48,0c-.52-.06-1,0-1.54,0-.13,0-.27,0-.33-.13.27-1,.59-2.08.8-3.15C54,45.81,54.1,45.08,54.23,44.36Z" transform="translate(0 0)"/><path class="cls-1" d="M21,74.33a3.24,3.24,0,0,1,3.08-3.24,3.09,3.09,0,0,1,3,3,3.2,3.2,0,0,1-3,3.24A3,3,0,0,1,21,74.33ZM26,73.13a1.39,1.39,0,0,0-2.37-1.07,5.63,5.63,0,0,0-1.59,3,1.36,1.36,0,0,0,.76,1.58,1.38,1.38,0,0,0,1.69-.35A4.58,4.58,0,0,0,25.39,75,4.35,4.35,0,0,0,26,73.13Z" transform="translate(0 0)"/><path class="cls-1" d="M35.66.39h.15c.07,0,.14,0,.14.11s-.06.11-.14.11a.8.8,0,0,0-.34.07c-.41.18-.51.43-.26.8C35.59,2,36,2.56,36.4,3.1l.78,1c.11.14.19.15.28,0,.47-.9,1-1.8,1.43-2.72.28-.58.08-.91-.56-1-.1,0-.18,0-.18-.14s.1-.11.18-.11c.81,0,1.63-.1,2.44-.18.09,0,.14,0,.15.1s-.05.1-.11.11a2.2,2.2,0,0,0-1.4,1.3L38.07,4l-.25.39a1.34,1.34,0,0,0-.14,1c.07.62.07,1.24.17,1.86s.3.72.88.7h.12c.08,0,.16,0,.18.1s-.07.12-.15.13L38,8.23l-2.13.15c-.09,0-.24.07-.25-.11s.14-.11.23-.12c.63-.05.87-.34.82-1s-.12-1.26-.14-1.89c0-.33-.24-.51-.4-.73-.77-1-1.57-2-2.35-3.08A1.63,1.63,0,0,0,32.71.85c-.06,0-.14,0-.15-.09s.07-.13.15-.14L33.6.55,35.66.4Z" transform="translate(0 0)"/><path class="cls-1" d="M45.2,80.28A2.24,2.24,0,0,1,44.1,80c-.15-.07-.23,0-.29.11s-.13.24-.2.36a.3.3,0,0,1-.29.12c-.11,0-.09-.13-.11-.21l-.3-1.75c0-.09-.07-.19.09-.22s.22-.07.3.08a4.67,4.67,0,0,0,.38.6,2,2,0,0,0,2.51.57,1,1,0,0,0,.6-1.1.9.9,0,0,0-.91-.74l-.92,0a6.26,6.26,0,0,1-1.05-.12,1.51,1.51,0,0,1-1.34-1.38,1.72,1.72,0,0,1,.84-1.76,2.32,2.32,0,0,1,2.21-.13c.26.11.38.08.45-.18a1.11,1.11,0,0,1,.09-.19.25.25,0,0,1,.26-.11c.09,0,.09.11.11.18l.3,1.6c0,.09.11.21-.08.25s-.24,0-.32-.1a2.54,2.54,0,0,0-.76-.9,1.68,1.68,0,0,0-1.76-.22,1,1,0,0,0-.59.7.82.82,0,0,0,.75,1,12.47,12.47,0,0,0,1.5.12,2.6,2.6,0,0,1,1.33.35,1.77,1.77,0,0,1-.07,2.88A2.76,2.76,0,0,1,45.2,80.28Z" transform="translate(0 0)"/><path class="cls-1" d="M2.75,49.74c-.45,0-.69.31-.58.8,0,.15.06.27-.14.31s-.19,0-.22-.11l-.54-1.87c0-.13,0-.18.14-.21s.2-.07.25.09a.82.82,0,0,0,.77.52l5.07.62c.17,0,.4,0,.46.25a.35.35,0,0,1-.13.4L3.61,53.89c-.24.19-.43.38-.3.72.06.15-.06.17-.16.21s-.19,0-.22-.12c-.22-.79-.44-1.57-.67-2.36,0-.13,0-.19.15-.23s.19,0,.24.12c.27.68.28.68.86.21s.62-.51.4-1.29c-.1-.35-.21-.7-.29-1s-.14-.31-.36-.31A4.63,4.63,0,0,1,2.75,49.74Zm3.55.48c-.06,0-.07-.06-.09-.06L4.13,49.9c-.17,0-.11.1-.09.17l.4,1.39c0,.13.08.18.2.08Z" transform="translate(0 0)"/><path class="cls-1" d="M70.11,15.91a4.45,4.45,0,0,1-3.88,3.93,3.82,3.82,0,0,1-4.14-2.74A3.58,3.58,0,0,1,62,15.32a3.19,3.19,0,0,1,.87-.06.24.24,0,0,1,.23.15l-.13.27a2.31,2.31,0,0,0,3,3.22A5.9,5.9,0,0,0,69.4,15c.06,0,.07-.07,0-.11v-.36c.11-.26.34-.16.53-.18a1,1,0,0,1,.12.42c-.08.05,0,.09,0,.12l0,.29A1,1,0,0,0,70.11,15.91Z" transform="translate(0 0)"/><path class="cls-1" d="M72.69,54.53a2.44,2.44,0,0,1-.37-1.17,1.19,1.19,0,0,1,1.55-1.19c.61.16,1.2.38,1.8.58.39.12.43.11.59-.24.07-.15.15-.12.26-.09s.16.11.11.24L76,54.45c0,.13-.1.18-.24.13s-.19-.1-.15-.25c.09-.35,0-.43-.3-.55l-1.43-.48c-.46-.15-.79-.06-1,.25a.86.86,0,0,0,.25,1.09,1.72,1.72,0,0,0,.46.25l1.21.41c.24.08.46.07.53-.23s.13-.2.29-.15.13.16.09.28c-.21.6-.41,1.2-.61,1.8,0,.13-.07.23-.26.17s-.16-.15-.11-.29c.11-.33.06-.43-.28-.55l-2-.66c-.31-.1-.45-.05-.59.25-.06.15-.12.17-.26.13s-.14-.13-.11-.25c.11-.36.22-.72.3-1.08s.17-.26.36-.22A1.09,1.09,0,0,0,72.69,54.53Z" transform="translate(0 0)"/><path class="cls-1" d="M15.81,68.48a3.81,3.81,0,0,1,.89,0,1.4,1.4,0,0,1,1.13.89,1.26,1.26,0,0,1-.36,1.28c-.36.44-.74.86-1.12,1.3-.23.27-.23.36,0,.59s.08.19,0,.29-.17.08-.27,0l-1.38-1.2c-.09-.08-.19-.14-.07-.29s.2-.11.32,0,.36.15.53,0L16.62,70a.68.68,0,0,0,.09-.87.84.84,0,0,0-.93-.29,1.45,1.45,0,0,0-.65.44l-.79.92c-.23.28-.23.37,0,.63.09.09.12.16,0,.27s-.17.12-.28,0l-1.52-1.32c-.1-.09-.07-.15,0-.24s.13-.13.25-.06c.43.27.44.27.78-.12l1.22-1.41c.25-.29.25-.41,0-.7-.09-.11-.07-.17,0-.27s.15-.09.25,0c.31.25.63.5,1,.74a.19.19,0,0,1,.05.3C16,68.14,15.92,68.29,15.81,68.48Z" transform="translate(0 0)"/><path class="cls-1" d="M30,76.27a3.32,3.32,0,0,1,.79-.41,1.24,1.24,0,0,1,1.69.9,2.79,2.79,0,0,1-.1,1c-.1.44-.2.89-.31,1.33-.07.27,0,.49.3.54.17,0,.14.12.12.24s-.08.17-.22.13c-.6-.15-1.21-.29-1.81-.42-.15,0-.2-.09-.17-.24s.1-.17.24-.13a.37.37,0,0,0,.49-.33c.1-.54.24-1.08.36-1.62a.71.71,0,0,0-.28-.8.82.82,0,0,0-.94.1,1.12,1.12,0,0,0-.37.59c-.12.46-.23.92-.34,1.38-.06.27,0,.45.31.5s.19.1.16.24-.11.16-.24.13L27.75,79c-.13,0-.17-.09-.13-.23s.06-.18.21-.15c.44.08.48.05.59-.39.16-.66.3-1.32.46-2a.39.39,0,0,0-.28-.53c-.12,0-.24,0-.2-.23s.17-.17.3-.14l1.1.19c.16,0,.21.11.2.26A4.49,4.49,0,0,0,30,76.27Z" transform="translate(0 0)"/><path class="cls-1" d="M62.36,72.33a6,6,0,0,1-.17.76,1.39,1.39,0,0,1-1.29,1,1.25,1.25,0,0,1-.85-.43,11.32,11.32,0,0,1-1-1.37c-.29-.4-.29-.41-.77-.26-.14,0-.16-.06-.22-.13a.13.13,0,0,1,0-.22l1.06-.85c.15-.13.2,0,.27.08l1.26,1.76c.27.37.52.5.84.4a.82.82,0,0,0,.52-.87,1.06,1.06,0,0,0-.17-.56c-.26-.38-.52-.75-.79-1.12a.38.38,0,0,0-.57-.08c-.11.08-.19.1-.28,0s0-.21.06-.29c.33-.26.65-.51,1-.79.16-.13.24-.09.34.06l1.53,2.15c.26.36.33.39.73.19.13-.06.17,0,.23.08s.1.17,0,.25l-1,.75c-.12.09-.2,0-.29,0Z" transform="translate(0 0)"/><path class="cls-1" d="M32.42,18.46H29.17a.67.67,0,0,0-.44.12,13.72,13.72,0,0,1,.27-1.8,7.62,7.62,0,0,1,.26-1.17,3.39,3.39,0,0,0,.78,0c.36,0,.73,0,1.08,0a11.87,11.87,0,0,1,1.46,0A12.91,12.91,0,0,0,32.42,18.46Z" transform="translate(0 0)"/><path class="cls-1" d="M69.33,60.3A2.32,2.32,0,0,1,71.47,58a2,2,0,0,1,2,2,2.3,2.3,0,0,1-2.15,2.35A2.05,2.05,0,0,1,69.33,60.3ZM70.73,59a.78.78,0,0,0-.77.46.75.75,0,0,0,.17.9,3.91,3.91,0,0,0,1.79,1,.77.77,0,0,0,.89-.3.72.72,0,0,0,0-.88A3.36,3.36,0,0,0,70.73,59Z" transform="translate(0 0)"/><path class="cls-1" d="M51.67,74.63a2,2,0,0,1,2,2.13,2.27,2.27,0,0,1-2.32,2,2,2,0,0,1-2-2.16A2.18,2.18,0,0,1,51.67,74.63Zm.9,2.61a4,4,0,0,0-.63-1.74.81.81,0,0,0-1-.35.8.8,0,0,0-.51.9A4,4,0,0,0,51,77.83a.8.8,0,0,0,1,.45C52.38,78.17,52.58,77.85,52.57,77.24Z" transform="translate(0 0)"/><path class="cls-1" d="M19.55,13.72a3.93,3.93,0,0,1-3.44,2.81,4.5,4.5,0,0,1-4.34-3.32,1.2,1.2,0,0,1,0-.2A2.44,2.44,0,0,1,13,13a7.88,7.88,0,0,0,1.81,2.13,2.86,2.86,0,0,0,2,.74,2.3,2.3,0,0,0,2.09-2.1A2.21,2.21,0,0,1,19.55,13.72Z" transform="translate(0 0)"/><path class="cls-1" d="M42.22,17.56c-.66.06-1.31-.09-2,0a2.19,2.19,0,0,0-.71.14,14.05,14.05,0,0,1-2.33-3.28,10.83,10.83,0,0,1,2.48,0c.67.92,1.36,1.83,2.11,2.69A2.43,2.43,0,0,1,42.22,17.56Z" transform="translate(0 0)"/><path class="cls-1" d="M32.58,15.68a11.87,11.87,0,0,0-1.46,0c-.35,0-.72,0-1.08,0a3.39,3.39,0,0,1-.78,0A17.94,17.94,0,0,1,30,13h2.9a.8.8,0,0,1,.37.06A16.72,16.72,0,0,0,32.58,15.68Z" transform="translate(0 0)"/><path class="cls-1" d="M49.79,42.16a.76.76,0,0,1-.47.07,2.65,2.65,0,0,0-.79.05c-.33,0-.65-.08-1-.06l.4-2.37a.2.2,0,0,0,0-.29l0-.65a.78.78,0,0,0,0-.65V38a.35.35,0,0,0,0-.41l0-.71c.06-.07.06-.12,0-.17l0-.43c.06-.06.06-.11,0-.17-.13-.73-.25-1.46-.45-2.2.17.06.16.2.2.3a35.67,35.67,0,0,1,1.59,5c.13.54.2,1.1.32,1.64A7.56,7.56,0,0,1,49.79,42.16Z" transform="translate(0 0)"/><path class="cls-1" d="M22.76,17.1c-.05-.33-.3-.34-.54-.28s-.67-.05-1,0a6.58,6.58,0,0,0-1.25.09A22.67,22.67,0,0,1,22.6,15a29.62,29.62,0,0,1,4.59-2.43l.25-.07h0c-.58.5-1.17,1-1.74,1.5a21.64,21.64,0,0,0-2.82,3A1.36,1.36,0,0,1,22.76,17.1Z" transform="translate(0 0)"/><path class="cls-1" d="M11.67,59c0,.12-.11.13-.18.18L7.62,61.41l-.33.19c-.39.22-.4.22-.25.63.06.15,0,.19-.12.25s-.17,0-.23-.08l-.94-1.64c-.08-.14,0-.2.08-.27s.18-.05.26.07c.19.32.26.33.59.14l3.64-2.09c.32-.19.37-.33.2-.65-.07-.13-.11-.22.06-.31s.22,0,.29.11l.73,1.11A.83.83,0,0,0,11.67,59Z" transform="translate(0 0)"/><path class="cls-1" d="M8.89,54.64c0-.06-.05-.15-.09-.23s0-.19.1-.25.2,0,.26.09c.21.41.42.83.64,1.23.12.23-.07.25-.19.31L5.37,57.7l-.32.15a.28.28,0,0,0-.16.41c.07.14.12.27-.09.35s-.22-.11-.27-.21c-.25-.53-.49-1.06-.73-1.59,0-.12-.1-.21.07-.28s.23-.05.28.11.3.29.53.18l3.94-1.77A.42.42,0,0,0,8.89,54.64Z" transform="translate(0 0)"/><path class="cls-1" d="M33.27,13.07A.8.8,0,0,0,32.9,13H30a14.36,14.36,0,0,1,.59-1.54.29.29,0,0,1,.21-.19,32.39,32.39,0,0,1,3.52-.75c.07,0,.16-.06.21,0s0,.09,0,.13A16.18,16.18,0,0,0,33.27,13.07Z" transform="translate(0 0)"/><path class="cls-1" d="M54.09,71.79a.48.48,0,0,0-.28.08c-.13.08-.2,0-.28-.09s0-.19.09-.25c.39-.22.78-.43,1.15-.67.2-.13.27,0,.35.13l1.66,3.24c.2.38.4.77.59,1.16.12.24.28.33.52.19s.21-.07.28.08,0,.21-.12.27c-.54.27-1.09.55-1.63.84-.13.06-.2.06-.28-.08s0-.21.11-.27.28-.32.16-.56l-2-3.84A.34.34,0,0,0,54.09,71.79Z" transform="translate(0 0)"/><path class="cls-1" d="M57.4,9.76l-1,1.64c-.06.11-.13.22-.19.34-.15.32-.12.49.16.69a14.84,14.84,0,0,0,1.86,1.16,1.63,1.63,0,0,0,1.4,0,3.65,3.65,0,0,0,.75-.41c.07,0,.14-.08.21,0s0,.15-.07.19L59,14.59a.22.22,0,0,1-.32,0l-4.87-3.13c-.07-.05-.17-.08-.09-.2s.15,0,.22,0a2.12,2.12,0,0,1,.2.12.66.66,0,0,0,1-.22c.35-.49.67-1,1-1.49A4.93,4.93,0,0,1,57.4,9.76Z" transform="translate(0 0)"/><path class="cls-1" d="M67.38,68.38a1.3,1.3,0,0,1-.82,1.19,1,1,0,0,1-1.2-.33c-.47-.47-.93-.95-1.37-1.43-.16-.18-.27-.18-.42,0a.6.6,0,0,1-.25.2c-.08,0-.14-.1-.2-.16s0-.14,0-.2a1.43,1.43,0,0,0-.07-1.76c-.1-.14-.15-.24,0-.37s.22,0,.3.11c.22.22.44.43.64.66s.28.24.46,0,.36-.33.53-.51.19-.07.28,0,.19.18,0,.31l-.63.58c-.11.1-.12.18,0,.29.5.51,1,1,1.48,1.54a.45.45,0,0,0,.61.11c.24-.15.23-.39.14-.63a1.06,1.06,0,0,0-.26-.43c-.12-.12-.06-.19,0-.28s.17,0,.25,0A1.53,1.53,0,0,1,67.38,68.38Z" transform="translate(0 0)"/><path class="cls-1" d="M57.4,9.76a4.93,4.93,0,0,0-1.27-.07l1.65-2.62c.22-.34.44-.68.63-1a.64.64,0,0,0-.2-1L58,4.93c-.08,0-.13-.1-.07-.19s.14,0,.2,0l1.3.83,1.44.93c.07,0,.18.07.1.19s-.14.06-.22,0l-.23-.13c-.57-.29-.89-.22-1.23.3-.57.86-1.12,1.74-1.68,2.6Z" transform="translate(0 0)"/><path class="cls-1" d="M39.69,14.38a10.83,10.83,0,0,0-2.48,0,7.22,7.22,0,0,1-.9-2.54h1.91C38.66,12.7,39.17,13.54,39.69,14.38Z" transform="translate(0 0)"/><path class="cls-1" d="M69.93,14.37c-.19,0-.42-.08-.53.18,0-.06,0-.11,0-.17a2.29,2.29,0,0,0-2.73-1.8,5.07,5.07,0,0,0-1.43.63c0-.2-.19-.2-.34-.2a9.05,9.05,0,0,0-1.56.06,4,4,0,0,1,6,.07A2.75,2.75,0,0,1,69.93,14.37Z" transform="translate(0 0)"/><path class="cls-1" d="M12.22,64.55a.31.31,0,0,0-.1-.27c-.12-.13-.08-.21,0-.32s.2,0,.28.06c.27.28.52.57.8.84s.18.27,0,.43l-2,1.72c-.33.29-.35.31-.09.66.09.13,0,.17-.06.24s-.15.13-.25,0c-.42-.5-.86-1-1.29-1.5-.08-.1,0-.16,0-.22s.13-.14.25,0c.37.3.38.3.75,0l1.48-1.27A.4.4,0,0,0,12.22,64.55Z" transform="translate(0 0)"/><path class="cls-1" d="M67.12,64.22a.43.43,0,0,0-.35.2c-.1.12-.17.07-.27,0s-.12-.15,0-.27c.25-.34.51-.7.75-1.05.11-.16.18-.13.3,0l2.16,1.7c.31.24.37.25.64,0,.11-.13.17,0,.26,0s.13.13,0,.24l-1.2,1.53c-.1.14-.18.06-.27,0s-.11-.14,0-.24c.24-.35.23-.38-.1-.65l-1.53-1.2A.58.58,0,0,0,67.12,64.22Z" transform="translate(0 0)"/><path class="cls-1" d="M12.21,10.16a3.51,3.51,0,0,1,2.48-1.79,4,4,0,0,1,3.83,1.35.75.75,0,0,1,.09.15c-.42,0-.85.09-1.28,0-.11,0-.32,0-.32.21a6.09,6.09,0,0,0-1.17-.84,2.21,2.21,0,0,0-2.39.16,3.09,3.09,0,0,0-.78.87Z" transform="translate(0 0)"/><path class="cls-1" d="M17,10.09c0-.23.21-.23.32-.21.43.08.86-.06,1.28,0a4,4,0,0,1,.94,3.85,2.21,2.21,0,0,0-.68,0,3.47,3.47,0,0,0-.56-2A9.59,9.59,0,0,0,17,10.09Z" transform="translate(0 0)"/><path class="cls-1" d="M85.82,12l-.31-.56c-.09,0-.05.1-.05.15,0,.91,0,1.81,0,2.72,0,.5.09.58.58.62.08,0,.19,0,.19.12s-.12.13-.21.13H84.6c-.08,0-.19,0-.2-.1s.09-.15.19-.15a.42.42,0,0,0,.45-.47c0-1.16,0-2.31,0-3.47a.44.44,0,0,0-.46-.47c-.09,0-.19,0-.19-.12s.12-.11.2-.11h1.33a.23.23,0,0,1,.24.12c.23.52.47,1,.71,1.53A5.35,5.35,0,0,0,85.82,12Z" transform="translate(0 0)"/><path class="cls-1" d="M85.82,12a5.35,5.35,0,0,1,1.06-.06,7.19,7.19,0,0,1,.34.75,11.17,11.17,0,0,0,.53,1l.91-1.89.35.06c-.48,1.06-1,2.12-1.45,3.17-.08.19-.23.19-.32,0C86.78,14,86.25,13,85.82,12Z" transform="translate(0 0)"/><path class="cls-1" d="M82.13,11.71c0,.85,0,1.69,0,2.54,0,.49,0,.53.51.68.07,0,.13,0,.13.13s-.07.12-.16.12h-2c-.08,0-.14,0-.16-.1s0-.14.1-.15c.52,0,.51-.41.51-.77,0-.73,0-1.46,0-2.19,0-.09,0-.18,0-.26Z" transform="translate(0 0)"/><path class="cls-1" d="M90.36,11.83c0,.8,0,1.6,0,2.4,0,.53,0,.55.53.7.08,0,.13,0,.13.13s-.06.13-.15.13h-2.1c-.08,0-.14,0-.15-.11s.06-.12.14-.14c.53-.11.55-.11.57-.65,0-.82,0-1.64,0-2.46Z" transform="translate(0 0)"/><path class="cls-1" d="M63.3,13.07A9.05,9.05,0,0,1,64.86,13c.15,0,.31,0,.34.2a8.15,8.15,0,0,0-2.06,2.2.24.24,0,0,0-.23-.15,3.19,3.19,0,0,0-.87.06A3.89,3.89,0,0,1,63.3,13.07Z" transform="translate(0 0)"/><path class="cls-1" d="M82.13,11.71h-1c0-.27,0-.54,0-.8s-.06-.25-.24-.23h-.5a.81.81,0,0,0-.81.61c0,.09,0,.25-.19.21s-.06-.18-.06-.28a.34.34,0,0,1,0-.14c0-.26,0-.61.15-.76s.51,0,.77,0h3.29c.21,0,.3.05.31.27s0,.53.07.8c0,.06,0,.14-.08.16s-.11-.06-.14-.13a1.17,1.17,0,0,0-1.46-.7c-.12,0-.11.12-.11.2C82.14,11.16,82.13,11.43,82.13,11.71Z" transform="translate(0 0)"/><path class="cls-1" d="M38.22,11.83H36.31a6.27,6.27,0,0,1-.13-1.29c0-.16,0-.25.22-.26.37,0,.73,0,1.09-.08.1,0,.17,0,.2.12A15.88,15.88,0,0,0,38.22,11.83Z" transform="translate(0 0)"/><path class="cls-1" d="M10,16.92a1.83,1.83,0,0,1-.47,0c-.21,0-.17.07-.17.19l-1.24-.86a4.26,4.26,0,0,0-.5-.32.65.65,0,0,0-1,.19l-.09.11c-.06.08-.1.23-.24.12s0-.18,0-.25l.59-.84.76-1.06c.06-.08.1-.24.24-.15s0,.2,0,.29a2.25,2.25,0,0,1-.12.21.64.64,0,0,0,.16.85c.58.5,1.24.9,1.86,1.36Z" transform="translate(0 0)"/><path class="cls-1" d="M12.21,10.16l.46.12a2.76,2.76,0,0,0-.17,1.1A4.53,4.53,0,0,0,13,13a2.44,2.44,0,0,0-1.23.06A3.67,3.67,0,0,1,12.21,10.16Z" transform="translate(0 0)"/><path class="cls-1" d="M90.36,11.83h-1c-.08-.13,0-.29-.06-.44-.16.14-.16.36-.3.5l-.35-.06c.17-.49.42-1,.63-1.43,0-.1.13-.1.22-.1h1.33c.09,0,.19,0,.19.12s-.08.11-.16.13c-.44.09-.49.16-.5.61C90.37,11.37,90.36,11.6,90.36,11.83Z" transform="translate(0 0)"/><path class="cls-1" d="M13.44,63.67a.61.61,0,0,1,.64-.65.66.66,0,0,1,.67.65.65.65,0,0,1-.64.66A.62.62,0,0,1,13.44,63.67Z" transform="translate(0 0)"/><path class="cls-1" d="M65.19,62.58a.65.65,0,0,1,.63-.68.68.68,0,0,1,.68.67.63.63,0,0,1-.66.64A.59.59,0,0,1,65.19,62.58Z" transform="translate(0 0)"/><path class="cls-1" d="M70.11,15.91a1,1,0,0,1,0-.71A1.42,1.42,0,0,1,70.11,15.91Z" transform="translate(0 0)"/><path class="cls-1" d="M48,38.26a.78.78,0,0,1,0,.65A1.58,1.58,0,0,1,48,38.26Z" transform="translate(0 0)"/><path class="cls-1" d="M48,37.54A.35.35,0,0,1,48,38,.58.58,0,0,1,48,37.54Z" transform="translate(0 0)"/><path class="cls-1" d="M48,39.56a.2.2,0,0,1,0,.29A.3.3,0,0,1,48,39.56Z" transform="translate(0 0)"/><path class="cls-1" d="M50,47c-.09-.09-.11-.17,0-.24A.26.26,0,0,1,50,47Z" transform="translate(0 0)"/><path class="cls-1" d="M8.83,38.55c.08.07.08.13,0,.18A.15.15,0,0,1,8.83,38.55Z" transform="translate(0 0)"/><path class="cls-1" d="M69.1,42.22c-.07-.06-.07-.11,0-.17A.17.17,0,0,1,69.1,42.22Z" transform="translate(0 0)"/><path class="cls-1" d="M47.94,36.66c.08.05.08.1,0,.17A.13.13,0,0,1,47.94,36.66Z" transform="translate(0 0)"/><path class="cls-1" d="M47.89,36.06c.07.06.07.11,0,.17A.12.12,0,0,1,47.89,36.06Z" transform="translate(0 0)"/><path class="cls-1" d="M69,43.64c-.06-.07,0-.12,0-.17A.12.12,0,0,1,69,43.64Z" transform="translate(0 0)"/><path class="cls-1" d="M70.07,14.91c-.07,0-.1-.07,0-.12A.1.1,0,0,1,70.07,14.91Z" transform="translate(0 0)"/><path class="cls-1" d="M69,37.19c-.06,0-.07-.07,0-.12A.08.08,0,0,1,69,37.19Z" transform="translate(0 0)"/><path class="cls-1" d="M69,43.05s0-.08,0-.11A.07.07,0,0,1,69,43.05Z" transform="translate(0 0)"/><path class="cls-1" d="M54.35,43.23c.07.05.06.09,0,.12A.09.09,0,0,1,54.35,43.23Z" transform="translate(0 0)"/><path class="cls-1" d="M54.29,43.88c.07,0,.06.09,0,.12A.08.08,0,0,1,54.29,43.88Z" transform="translate(0 0)"/><path class="cls-1" d="M68.91,44.12c-.06-.06,0-.09,0-.12A.1.1,0,0,1,68.91,44.12Z" transform="translate(0 0)"/><path class="cls-1" d="M69,37.78c-.05,0-.06-.07,0-.11A.07.07,0,0,1,69,37.78Z" transform="translate(0 0)"/><path class="cls-1" d="M49.13,68.78l-.06,0,0,0h.08Z" transform="translate(0 0)"/><polygon class="cls-1" points="27.44 12.48 27.45 12.47 27.44 12.48 27.44 12.48"/><path class="cls-1" d="M40,68.43l-.07,0h0a.05.05,0,0,1,0-.07Z" transform="translate(0 0)"/><path class="cls-1" d="M40,68.48l0,0,0,0,0,0Z" transform="translate(0 0)"/><polygon class="cls-1" points="39.8 68.58 39.8 68.56 39.81 68.57 39.8 68.58"/><path class="cls-1" d="M69.4,15a.07.07,0,0,1,0-.11C69.47,15,69.46,15,69.4,15Z" transform="translate(0 0)"/></g></g></svg>