<svg xmlns="http://www.w3.org/2000/svg" viewBox="0 0 28.38 28.37" width="15" height="15">
    <defs>
        <style>.cls-1{fill:#333;}</style>
    </defs>
    <g id="Layer_2" data-name="Layer 2">
        <g id="Layer_1-2" data-name="Layer 1">
            <path class="cls-1" d="M24.32,17.82c0,2.51,0,5,0,7.53a3,3,0,0,1-2.26,2.92,3.77,3.77,0,0,1-.88.10H7.58a6.83,6.83,0,0,1-1.11-.07,3,3,0,0,1-2.38-2.66c0-.78,0-1.56,0-2.34q0-6.54,0-13.07a1,1,0,0,1,.77-1.08A1,1,0,0,1,6.06,10a7.3,7.3,0,0,1,0,.81V25.22a1,1,0,0,0,.46,1,1.26,1.26,0,0,0,.59.17h14a1,1,0,0,0,1.13-1.12c0-3.21,0-6.43,0-9.65,0-1.79,0-3.58,0-5.37a1,1,0,1,1,2,0v7.6Z"/>
            <path class="cls-1" d="M6.08,5.08V4.23c0-.5,0-1,0-1.49A2.91,2.91,0,0,1,8.1.19a3,3,0,0,1,1-.18H19.26a3,3,0,0,1,3,2.6,11.87,11.87,0,0,1,0,1.58c0,.21,0,.43,0,.65s0,.25.24.25h4.83a1,1,0,0,1,1,.85A1,1,0,0,1,27.74,7a1.26,1.26,0,0,1-.47.08H1.09A1,1,0,0,1,0,6.16,1,1,0,0,1,1,5.08H6.08Zm14.17,0a1.8,1.8,0,0,0,0-.22V3.11A1,1,0,0,0,19.17,2h-10A1,1,0,0,0,8.11,3.09V4.88c0,.06,0,.12,0,.19Z"/>
            <path class="cls-1" d="M10.14,15.71v-5.5a1,1,0,1,1,2-.05c0,.67,0,1.33,0,2v9a1.18,1.18,0,0,1-.22.77,1,1,0,0,1-1.13.33,1,1,0,0,1-.66-1c0-1.86,0-3.71,0-5.56Z"/>
            <path class="cls-1" d="M18.23,15.71v5.52a1,1,0,1,1-2,0c0-1,0-2,0-3V10.23a1,1,0,0,1,.47-.94,1,1,0,0,1,1.55.84v5.58Z"/>
        </g>
    </g>
</svg>
