<svg xmlns="http://www.w3.org/2000/svg" viewBox="0 0 85.73 111.29"><defs><style>.cls-1{fill:#126c69;}</style></defs><g id="Layer_2" data-name="Layer 2"><g id="Layer_1-2" data-name="Layer 1"><path class="cls-1" d="M45.27,0c1.31.25,2.63.45,3.93.76A26.93,26.93,0,0,1,69.77,26.87c0,1.16,0,2.32,0,3.48s-.7,1.86-1.7,1.83-1.55-.7-1.54-1.85a34.62,34.62,0,0,0-1-10.33,23.6,23.6,0,0,0-45.87,3,25.81,25.81,0,0,0-.35,4.11c0,8.76,0,17.53,0,26.3,0,.31,0,.63.06,1h5.32c0-.43.05-.85.05-1.26,0-8.66-.07-17.32,0-26,.08-7.65,3.54-13.4,10.44-16.72C47.26,4.65,61,13.5,61.07,27.1c.06,8.66,0,17.32,0,26v1.36h5.38c0-.41.06-.8.06-1.18V39a7.89,7.89,0,0,1,0-1.09,1.58,1.58,0,0,1,3.09-.22A5,5,0,0,1,69.77,39q0,7.05,0,14.12v1.32c.45,0,.82.06,1.2.06,3.19,0,6.38.12,9.56,0,3.52-.18,5.68,2.07,5.09,6a7,7,0,0,1-6.41,6.08l-1.15.12v39.91c0,3.28-1.41,4.67-4.71,4.67-.9,0-1.81,0-2.71,0a3.8,3.8,0,0,1-4.13-4.12q0-12.61,0-25.21V80.59H57.9c0,2,0,3.91,0,5.85a4.27,4.27,0,0,1-3.43,4.62c-.73.22-.6.7-.6,1.17q0,8.26,0,16.52a5.9,5.9,0,0,1-.07,1.19,1.58,1.58,0,0,1-3.12,0,6.73,6.73,0,0,1-.07-1.19V91.32H34.86v17.53a6.29,6.29,0,0,1,0,1,1.53,1.53,0,0,1-1.51,1.44,1.49,1.49,0,0,1-1.62-1.17,4.22,4.22,0,0,1-.1-1.18q0-8.2,0-16.41V91.3A14.37,14.37,0,0,1,30,90.75a4.29,4.29,0,0,1-2.46-4c0-2,0-4,0-6.14H19.25v26.21c0,3.09-1.41,4.49-4.52,4.49-1.06,0-2.11,0-3.16,0a3.78,3.78,0,0,1-3.85-3.76c-.06-3.69,0-7.39,0-11.08a1.67,1.67,0,0,1,1.68-1.87c.95,0,1.56.76,1.57,2,0,3.4,0,6.81,0,10.21,0,1,.31,1.38,1.32,1.31a24.12,24.12,0,0,1,2.82,0c.66,0,.94-.27.91-.91,0-.14,0-.29,0-.43v-40H11V87.67a9.91,9.91,0,0,1,0,1.09,1.5,1.5,0,0,1-1.4,1.42A1.48,1.48,0,0,1,7.81,89a4.6,4.6,0,0,1-.1-1.29q0-9.88,0-19.77V66.71c-.7-.08-1.35-.11-2-.23A7.26,7.26,0,0,1,.24,57.63a4.13,4.13,0,0,1,4.18-3.12c3.4,0,6.81,0,10.21,0h1.3c0-.5.06-.92.06-1.34,0-8.62-.09-17.24,0-25.86.14-11,5.11-19.15,14.78-24.4a24.13,24.13,0,0,1,9-2.71A3.64,3.64,0,0,0,40.49,0ZM57.75,54.44c0-.26.07-.41.07-.55,0-9.08.11-18.17,0-27.26A14.91,14.91,0,0,0,28,27c-.05,8.8,0,17.59,0,26.39,0,.35,0,.69.07,1ZM42.88,77.25c7.5,0,15,0,22.5,0,.88,0,1.18-.23,1.16-1.15-.06-2.82-.05-5.65,0-8.47,0-.83-.26-1-1.06-1q-22.59,0-45.2,0c-.79,0-1.06.21-1.05,1,.05,2.79.07,5.58,0,8.37,0,1,.3,1.26,1.28,1.25C28,77.23,35.42,77.25,42.88,77.25ZM43,57.76H4.82c-1.24,0-1.48.25-1.49,1.45,0,2.66,1.56,4.16,4.43,4.16H78a9.39,9.39,0,0,0,1.19-.06,3.76,3.76,0,0,0,3.28-3.51c.13-1.76-.13-2-1.87-2Zm26.82,8.91v39.82c0,.21,0,.43,0,.65,0,.65.28.91.92.89.9,0,1.81,0,2.71,0,1.37,0,1.39,0,1.39-1.41q0-19.38,0-38.76c0-.38,0-.76,0-1.18ZM42.78,88c3.4,0,6.8,0,10.2,0,1.33,0,1.65-.35,1.66-1.68s0-2.9,0-4.34c0-1-.43-1.43-1.36-1.43H32.23a1.24,1.24,0,0,0-1.41,1.39c0,1.41,0,2.83,0,4.24S31.13,88,32.68,88Z"/><path class="cls-1" d="M42.88,73.58c-1.12,0-2.24,0-3.36,0a1.63,1.63,0,1,1,0-3.24q3.32,0,6.63,0a1.63,1.63,0,1,1,0,3.24C45.13,73.61,44,73.58,42.88,73.58Z"/></g></g></svg>