<svg xmlns="http://www.w3.org/2000/svg" viewBox="0 0 50 46.05"><defs><style>.cls-1{fill:#fff;}</style></defs><g id="Layer_2" data-name="Layer 2"><g id="Layer_1-2" data-name="Layer 1"><path class="cls-1" d="M50,2Q41.14,12.78,32.26,23.51a2.92,2.92,0,0,0-.71,2c0,4.41,0,8.82,0,13.23A2.43,2.43,0,0,1,30,41.29c-3,1.42-6,3-9,4.41-1.62.8-2.59.2-2.59-1.61,0-6.11,0-12.23,0-18.34a3.43,3.43,0,0,0-.84-2.4Q9.14,13.18.75,3C.25,2.36-.27,1.76.16.88S1.25,0,2,0H28.37c6.52,0,13,0,19.56,0A2,2,0,0,1,50,1.14ZM21.38,42.16c2.22-1.09,4.22-2.11,6.25-3.06a1.45,1.45,0,0,0,1-1.52c0-4.37,0-8.74,0-13.11a3.76,3.76,0,0,1,.74-2.1c3.94-4.86,7.94-9.67,11.93-14.5,1.28-1.55,2.56-3.12,4-4.82H4.79c.28.38.46.65.67.9Q13,13.07,20.52,22.19a3.39,3.39,0,0,1,.88,2.42c0,1.62,0,3.25,0,4.88Z"/></g></g></svg>