<svg xmlns="http://www.w3.org/2000/svg" viewBox="0 0 100 85.29"><defs><style>.cls-1{fill:#ea4335;}.cls-2{fill:#fbbc04;}.cls-3{fill:#34a853;}.cls-4{fill:#4285f4;}</style></defs><g id="Layer_2" data-name="Layer 2"><g id="Layer_1-2" data-name="Layer 1"><path class="cls-1" d="M91,16.5a20.67,20.67,0,0,0-28.22,7.57L48.37,49c-4.17,7.2,1.2,9.72,7.18,13.3l13.85,8a9.81,9.81,0,0,0,13.39-3.59L97.58,41.09A18,18,0,0,0,91,16.5Z"/><path class="cls-2" d="M74.71,26.83l-13.86-8c-7.64-4.24-12-4.53-15.11.46L25.31,54.68a20.62,20.62,0,0,0,7.57,28.19,18,18,0,0,0,24.58-6.59L78.29,40.22A9.79,9.79,0,0,0,74.71,26.83Z"/><path class="cls-3" d="M77.37,8.64,67.64,3a22.5,22.5,0,0,0-30.73,8.23L18.39,43.33A9.89,9.89,0,0,0,22,56.86L32.9,63.15A11.25,11.25,0,0,0,48.27,59L69.43,22.38a15.88,15.88,0,0,1,21.68-5.81Z"/><path class="cls-4" d="M39.54,20.43,29,14.37A9.8,9.8,0,0,0,15.64,18L3,39.76a22.4,22.4,0,0,0,8.23,30.65l8,4.61L29,80.61,33.18,83a17.24,17.24,0,0,1-5.28-23l3.27-5.64,12-20.67A9.76,9.76,0,0,0,39.54,20.43Z"/></g></g></svg>