<svg xmlns="http://www.w3.org/2000/svg" viewBox="0 0 57.4 51.84"><defs><style>.cls-1{fill:none;stroke:#fff;stroke-miterlimit:10;stroke-width:4.06px;}</style></defs><g id="Layer_2" data-name="Layer 2"><g id="Layer_1-2" data-name="Layer 1"><path class="cls-1" d="M34.64,49.75V32.16H22.82v17.6c-.48,0-.85.05-1.23.05H5.52C3.1,49.81,2,48.73,2,46.33c0-6.94,0-13.89,0-20.83a2.31,2.31,0,0,1,.66-1.61Q15.47,13.27,28.31,2.75a3.43,3.43,0,0,1,.41-.26l5.92,4.86q10,8.21,19.93,16.41a2,2,0,0,1,.8,1.71c0,6.9,0,13.81,0,20.71,0,2.53-1.1,3.63-3.61,3.63H35.91C35.52,49.81,35.14,49.77,34.64,49.75Z"/></g></g></svg>