<svg xmlns="http://www.w3.org/2000/svg" viewBox="0 0 22.91 22.43"><defs><style>.cls-1{fill:gray;}</style></defs><g id="Layer_2" data-name="Layer 2"><g id="Layer_1-2" data-name="Layer 1"><path class="cls-1" d="M11.43,0a11.09,11.09,0,0,1,9.19,5.08.36.36,0,0,1,.06.28.4.4,0,0,1-.26.12c-.57,0-1.15,0-1.72,0a.72.72,0,0,1-.43-.24,8.84,8.84,0,0,0-5.59-3.11A8.8,8.8,0,0,0,4.57,4.86a8.76,8.76,0,0,0-1.85,9.85,8.69,8.69,0,0,0,6.77,5.56,9,9,0,0,0,8.74-3,.76.76,0,0,1,.61-.29c.5,0,1,0,1.5,0a.45.45,0,0,1,.33.13c0,.06,0,.23-.09.32a11,11,0,0,1-6.9,4.73,11.2,11.2,0,0,1-9-20A11.32,11.32,0,0,1,11.43,0Z"/><path class="cls-1" d="M18.79,12.16h-8c-.34,0-.38-.05-.38-.38V10.66c0-.34,0-.38.39-.38h8c0-.56,0-1.1,0-1.64a2.56,2.56,0,0,1,.13-.53,2.47,2.47,0,0,1,.46.23c1.1.85,2.19,1.72,3.29,2.59.32.26.32.32,0,.58l-3.4,2.68a1.83,1.83,0,0,1-.35.14,1.49,1.49,0,0,1-.13-.39C18.78,13.36,18.79,12.78,18.79,12.16Z"/></g></g></svg>