<svg xmlns="http://www.w3.org/2000/svg" viewBox="0 0 82.4 82.4"><defs><style>.cls-1{fill:none;stroke:#1c75bc;stroke-miterlimit:10;stroke-width:3px;}.cls-2{fill:#1c75bc;}</style></defs><g id="Layer_2" data-name="Layer 2"><g id="Layer_1-2" data-name="Layer 1"><circle class="cls-1" cx="41.2" cy="41.2" r="39.7"/><path class="cls-2" d="M41.14,67.84a26.64,26.64,0,1,1,26.7-26.63A26.53,26.53,0,0,1,41.14,67.84Zm16-43.78A22.71,22.71,0,0,0,35,18.54c-9.84,3-15.7,9.69-17.15,19.85-1,7.15,1.28,13.45,6.1,18.81C35.09,46.08,46.05,35.1,57.09,24.06ZM26.56,59.62c6.35,4.75,13.4,6.45,21.06,4.15,9.14-2.75,14.79-9,16.66-18.37,1.39-7-.44-13.26-4.91-19.1-3.31,3.37-6.47,6.54-9.55,9.78-.26.28-.1,1,0,1.53,0,.12.75.11,1.13,0s.78-.43,1.14-.4c.53,0,1.27.16,1.51.52.39.58,0,1.14-.7,1.41l-2.65,1.12c.58,2.58,2.44,3.58,4.62,4.15a2.49,2.49,0,0,0,1.63-.21A2.48,2.48,0,0,1,60,45.1a2.37,2.37,0,0,1-1.16,3.38A2.44,2.44,0,0,1,55.6,47a1.61,1.61,0,0,0-.7-.85,13.4,13.4,0,0,0-2.32-.76,4.65,4.65,0,0,0-4.24,1.08c.74.92,1.39,1.75,2.06,2.56.53.64,1,1.33.18,2s-1.39,0-1.89-.65-1.27-1.55-1.86-2.28L43.47,50a35.48,35.48,0,0,1,.91,3.5c.06.37-.37,1.17-.62,1.18A1.71,1.71,0,0,1,42.43,54a7.39,7.39,0,0,1-.64-2c-.59-2-.82-2.12-2.64-1-.1.06-.22.11-.32.18a5.59,5.59,0,0,0-2.28,4A3.51,3.51,0,0,0,37,56.91a2.47,2.47,0,0,1-1.17,3.21,2.39,2.39,0,0,1-2.14-4.28,4.3,4.3,0,0,0,1.64-5.12ZM42.08,48.31h.55c.33-.48.87-.92,1-1.43.14-.8-.43-1.3-1.24-1.31S41,46,41.13,46.78A4.91,4.91,0,0,0,42.08,48.31Zm3.38-7c-.53.88-1.11,1.42-1,1.86a1.79,1.79,0,0,0,1.24,1.1A1,1,0,0,0,46.76,43C46.64,42.5,46.09,42.09,45.46,41.28Z"/><path class="cls-2" d="M30.17,40.65a14.87,14.87,0,0,1-2.49.22c-.46,0-.9-.44-1.34-.69.34-.37.61-1,1-1.08a21.28,21.28,0,0,1,2.94-.51c.29-1.87-1.34-3.82-2.87-4.5-.25-.11-.68.07-1,.19a2.42,2.42,0,0,1-3.27-1.46,2.45,2.45,0,0,1,1.74-3.14,2.56,2.56,0,0,1,2.95,2.08,2.27,2.27,0,0,0,1,1.3,4.77,4.77,0,0,0,4.47,0c-.6-.63-1.12-1.16-1.64-1.69s-.95-1.22-.21-1.89,1.27-.24,1.79.32,1.23,1.3,1.89,2a4.36,4.36,0,0,1,.79-.32,1.38,1.38,0,0,0,1.14-2A3.29,3.29,0,0,1,36.9,28a2,2,0,0,1,.89-1.31c.69-.26,1.11.28,1.2,1l.33,2.3a4.52,4.52,0,0,0,2.59-4.19c-.07-.35-.45-.64-.69-1A2.41,2.41,0,1,1,45.13,22a2.19,2.19,0,0,1-.65,3.28,2.36,2.36,0,0,0-1.18,3,26.44,26.44,0,0,0,1.77,4.11c-1.94,1.87-4.2,4-6.43,6.22S34.28,43,32,45.12a7.08,7.08,0,0,1-2.36,1.44c-.37.15-1-.27-1.45-.43.18-.47.37-1,.56-1.42,0,0,.07,0,.1-.06C31,43.29,31,43.29,30.17,40.65Zm10.07-5.81A2.21,2.21,0,0,0,38,32.73,2.29,2.29,0,0,0,35.88,35a2.26,2.26,0,0,0,2.21,2A2.21,2.21,0,0,0,40.24,34.84ZM35.8,40l0-.58a5.41,5.41,0,0,0-1.6-.82,1,1,0,0,0-1.09,1.25c.13.49.8,1.15,1.23,1.15S35.31,40.35,35.8,40Z"/><circle class="cls-2" cx="45.65" cy="42.97" r="1.9"/><circle class="cls-2" cx="42.36" cy="46.95" r="1.9"/><circle class="cls-2" cx="34.32" cy="39.58" r="1.9"/></g></g></svg>