<svg xmlns="http://www.w3.org/2000/svg" viewBox="0 0 82.4 82.4"><defs><style>.cls-1{fill:none;stroke:#1c75bc;stroke-miterlimit:10;stroke-width:3px;}.cls-2{fill:#1c75bc;}</style></defs><g id="Layer_2" data-name="Layer 2"><g id="Layer_1-2" data-name="Layer 1"><circle class="cls-1" cx="41.2" cy="41.2" r="39.7"/><path class="cls-2" d="M41.12,27.17c1-.9,1.82-1.79,2.77-2.57A11.51,11.51,0,0,1,49.75,22a11.82,11.82,0,0,1,7.87,1.52,11.19,11.19,0,0,1,4.61,5.15,13.31,13.31,0,0,1-.07,10.76,20.39,20.39,0,0,1-4,5.93,93.38,93.38,0,0,1-9.57,9c-2.45,2.07-4.93,4.1-7.42,6.17-.73-.6-1.46-1.17-2.17-1.77-2.57-2.15-5.15-4.29-7.69-6.47a70.12,70.12,0,0,1-7.71-7.51,19.28,19.28,0,0,1-3.8-6.27A14.2,14.2,0,0,1,19.18,32a11.35,11.35,0,0,1,3.08-6.48,11,11,0,0,1,5.95-3.37,11.82,11.82,0,0,1,10.38,2.5c.86.71,1.61,1.55,2.41,2.33A.66.66,0,0,1,41.12,27.17Zm.11,3.89c-1.16-1.24-2.24-2.5-3.42-3.66a9.51,9.51,0,0,0-8.14-2.83,8.76,8.76,0,0,0-7.41,5.8,10.28,10.28,0,0,0-.21,6.35,15.1,15.1,0,0,0,3.17,5.88,52.19,52.19,0,0,0,6.45,6.51c2.75,2.39,5.55,4.7,8.33,7,.39.33.79.65,1.19,1l.17-.13c2.64-2.21,5.3-4.41,7.93-6.63a75.2,75.2,0,0,0,6.36-6,20.54,20.54,0,0,0,4.12-6A11.48,11.48,0,0,0,60.55,32a8.44,8.44,0,0,0-3-5.29,9.2,9.2,0,0,0-10.28-1.2,12.28,12.28,0,0,0-4,3.23C42.57,29.5,41.89,30.3,41.23,31.06Z"/></g></g></svg>