<svg xmlns="http://www.w3.org/2000/svg" viewBox="0 0 82.4 82.4"><defs><style>.cls-1{fill:none;stroke:#1c75bc;stroke-miterlimit:10;stroke-width:3px;}.cls-2{fill:#1c75bc;}</style></defs><g id="Layer_2" data-name="Layer 2"><g id="Layer_1-2" data-name="Layer 1"><circle class="cls-1" cx="41.2" cy="41.2" r="39.7"/><path class="cls-2" d="M18.47,52.74c.08-.43.13-.86.23-1.29a8.78,8.78,0,0,1,2.38-4.39l7.55-7.55a2.28,2.28,0,0,1,3.86,1.11,2.22,2.22,0,0,1-.67,2.13l-7.41,7.41A4.56,4.56,0,0,0,23,53.57a4.43,4.43,0,0,0,1.25,3.06,18.58,18.58,0,0,0,1.87,1.79,4.55,4.55,0,0,0,6-.35Q37.28,53,42.39,47.84a4.61,4.61,0,0,0,0-6.59,2.29,2.29,0,0,1,0-3.23,2.26,2.26,0,0,1,3.22,0,8.83,8.83,0,0,1,2.62,5.66,8.93,8.93,0,0,1-2.69,7.32c-3.37,3.41-6.77,6.79-10.16,10.18a9.06,9.06,0,0,1-5.63,2.66.42.42,0,0,0-.16,0H28.2l-.2,0A8.71,8.71,0,0,1,23.32,62c-.74-.6-1.39-1.3-2.08-2a8.75,8.75,0,0,1-1.4-1.75.28.28,0,0,0-.29-.16h-.41v-.06l.5,0,0-.06-.34-.37a.24.24,0,0,1-.06-.08,3.56,3.56,0,0,0-.1-.47c-.16-.52-.35-1-.49-1.57s-.15-.86-.23-1.29Z"/><path class="cls-2" d="M63.93,29.61c-.07.41-.12.82-.21,1.23a8.85,8.85,0,0,1-2.45,4.55c-2.43,2.45-4.88,4.89-7.32,7.33a2.28,2.28,0,1,1-3.21-3.23l7.19-7.2a4.61,4.61,0,0,0,0-6.71l-1.2-1.21a4.6,4.6,0,0,0-6.52,0Q45.08,29.47,40,34.6a4.6,4.6,0,0,0,0,6.52,2.29,2.29,0,0,1,.38,2.78,2.26,2.26,0,0,1-3.53.5,8.61,8.61,0,0,1-2.49-4.46,9,9,0,0,1,2.57-8.67q5-5.06,10.08-10.08a9.08,9.08,0,0,1,5.67-2.68.59.59,0,0,0,.17,0h1.32a.65.65,0,0,0,.2,0A8.69,8.69,0,0,1,59,20.35a28.37,28.37,0,0,1,2.13,2A9,9,0,0,1,63.72,27c.08.41.14.83.21,1.25Z"/><path class="cls-2" d="M24.85,23.79a1,1,0,0,1,.77.33q1.59,1.57,3.16,3.16a1.06,1.06,0,1,1-1.51,1.5q-1.59-1.58-3.18-3.18a1.06,1.06,0,0,1,.76-1.81Z"/><path class="cls-2" d="M58.61,57.57a1,1,0,0,1-.64,1,1,1,0,0,1-1.13-.19c-1.1-1.08-2.2-2.17-3.28-3.27a1,1,0,0,1,0-1.46,1.06,1.06,0,0,1,1.49,0c.28.26.54.53.81.8l2.36,2.36A1.08,1.08,0,0,1,58.61,57.57Z"/><path class="cls-2" d="M58,44.47h2.21a1.07,1.07,0,1,1,0,2.13H55.79a1.06,1.06,0,0,1-.26-2.1,1.63,1.63,0,0,1,.31,0Z"/><path class="cls-2" d="M37.93,24.37v2.2a1.08,1.08,0,0,1-1.08,1.13,1.09,1.09,0,0,1-1.06-1.13c0-1.47,0-2.94,0-4.4a1.07,1.07,0,1,1,2.13,0Z"/><path class="cls-2" d="M24.34,37.93h-2.2A1.06,1.06,0,0,1,21,36.86a1.08,1.08,0,0,1,1.1-1.06h4.45a1.07,1.07,0,0,1,1.11,1.08,1.06,1.06,0,0,1-1.1,1Z"/><path class="cls-2" d="M44.47,58v-2.2a1.06,1.06,0,0,1,1.07-1.13,1.07,1.07,0,0,1,1.06,1.12v4.45a1.07,1.07,0,0,1-.81,1,1,1,0,0,1-1.19-.52,1.48,1.48,0,0,1-.13-.55C44.46,59.52,44.47,58.78,44.47,58Z"/></g></g></svg>