<svg xmlns="http://www.w3.org/2000/svg" viewBox="0 0 82.4 82.4"><defs><style>.cls-1{fill:none;stroke:#1c75bc;stroke-miterlimit:10;stroke-width:3px;}.cls-2{fill:#1c75bc;}</style></defs><g id="Layer_2" data-name="Layer 2"><g id="Layer_1-2" data-name="Layer 1"><circle class="cls-1" cx="41.2" cy="41.2" r="39.7"/><path class="cls-2" d="M35.05,41.55a2.39,2.39,0,0,1,0-.38,1.18,1.18,0,0,0-.85-1.48,3.38,3.38,0,0,1-1.92-2.9c-.31.18-.58.32-.84.49a3.44,3.44,0,0,1-4.58-5.06,3.46,3.46,0,0,1,4.59-.56c.23.15.49.28.81.47A3.69,3.69,0,0,1,35,28.45c0-.16,0-.32,0-.47a1.1,1.1,0,0,0-.81-1.37,3.41,3.41,0,0,1-2-2.91c-.3.17-.56.3-.8.46a3.32,3.32,0,0,1-4.5-.53,3.45,3.45,0,0,1,0-4.51,3.29,3.29,0,0,1,4.49-.54c.24.15.5.27.76.41a10.67,10.67,0,0,1,.28-1.33,3.51,3.51,0,0,1,4.22-2.26,20,20,0,0,0,8.94,0A3.64,3.64,0,0,1,50.16,19c.4-.24.76-.46,1.13-.66a3.4,3.4,0,0,1,4.18.66,3.45,3.45,0,0,1-3.69,5.58,14.21,14.21,0,0,1-1.64-.91,3.74,3.74,0,0,1-2.53,3.18.55.55,0,0,0-.24.4,10.88,10.88,0,0,0,0,1.14c1.94.83,2.39,1.41,2.83,3.68.27-.16.52-.28.76-.44a3.44,3.44,0,0,1,4.59,5.06,3.4,3.4,0,0,1-4.57.56c-.24-.16-.5-.3-.73-.44a8.94,8.94,0,0,1-.83,1.79A4.27,4.27,0,0,1,48,39.81c-.45.23-.7.42-.61.94a2.68,2.68,0,0,1,0,.58,11,11,0,0,1,2,1.56,9.66,9.66,0,0,1,1,2.22l.76-.42A3.39,3.39,0,0,1,55,44.8a3.43,3.43,0,0,1,1.29,3.58A3.25,3.25,0,0,1,53.36,51a6.44,6.44,0,0,1-2.21-.47,4.56,4.56,0,0,1-1-.6,3.78,3.78,0,0,1-2.77,3.28v1.49a3.68,3.68,0,0,1,2.75,3.69l1-.57A3.43,3.43,0,1,1,51,63.5L50.18,63a5.55,5.55,0,0,0-.18.61,3.38,3.38,0,0,1-2.48,2.58,22.57,22.57,0,0,1-12.67,0,3.41,3.41,0,0,1-2.44-2.54c0-.17-.09-.35-.14-.52s0,0-.11-.11c-1.9,1.43-3.81,1.7-5.48-.36a3.2,3.2,0,0,1,.06-4.05,4,4,0,0,1,1.63-1.16,3.77,3.77,0,0,1,2-.07,7.69,7.69,0,0,1,1.73.83A9.09,9.09,0,0,1,33,56a10.61,10.61,0,0,1,2-1.62V53.17a3.73,3.73,0,0,1-2.75-3.28l-1,.62a3.44,3.44,0,1,1,0-5.86l.93.57C32.66,42.91,33.15,42.28,35.05,41.55ZM48.19,60.49V58.38c0-1.39-.8-2-2.17-1.78a23.22,23.22,0,0,1-9.68,0,1.61,1.61,0,0,0-2.12,1.7c0,1.44,0,2.87,0,4.3a1.58,1.58,0,0,0,1.44,1.84,29.46,29.46,0,0,0,5.25.72,35.64,35.64,0,0,0,5.8-.72c1.13-.19,1.47-.77,1.48-2Zm0-39.31V19.27c0-1.66-.75-2.22-2.38-2a30,30,0,0,1-4.81.47,39.17,39.17,0,0,1-4.8-.54,1.59,1.59,0,0,0-2,1.53c0,1.57,0,3.15,0,4.72a1.46,1.46,0,0,0,1.25,1.57,38.82,38.82,0,0,0,4.15.76,19.19,19.19,0,0,0,7.22-.74c1-.29,1.34-.76,1.35-1.85Zm0,26.21c0-.75,0-1.5,0-2.26a1.58,1.58,0,0,0-2-1.64,23.06,23.06,0,0,1-9.82,0,1.6,1.6,0,0,0-2.11,1.69c0,1.43,0,2.87,0,4.3,0,1.05.37,1.63,1.38,1.82A30.92,30.92,0,0,0,41,52a35.7,35.7,0,0,0,5.79-.74c1-.18,1.4-.75,1.41-1.79Zm0-13.1c0-.76,0-1.51,0-2.26a1.58,1.58,0,0,0-2-1.66,22.76,22.76,0,0,1-9.89,0,1.58,1.58,0,0,0-2.05,1.69c0,1.34,0,2.69,0,4S34.57,38,36,38.3l.53.11a20.49,20.49,0,0,0,10.2-.18,1.61,1.61,0,0,0,1.47-1.83Zm-2.78-6.9a21.54,21.54,0,0,1-8.39,0v1.16a18.86,18.86,0,0,0,8.39,0Zm0,13.09a21.13,21.13,0,0,1-8.42,0v1.15a19,19,0,0,0,8.42,0Zm0,13.21c-1.43.12-2.81.31-4.19.31s-2.8-.19-4.23-.31c0,.15,0,.32,0,.5s0,.35,0,.56a19.44,19.44,0,0,0,8.42,0ZM32.28,60.9c.09-.36,0-.64-.53-.76a4.59,4.59,0,0,1-1.33-.66,1.55,1.55,0,0,0-2.09.18,1.51,1.51,0,0,0,0,2,1.55,1.55,0,0,0,2.09.25C31,61.57,31.57,61.27,32.28,60.9Zm.06-13.15c-.08-.16-.17-.49-.38-.63-.51-.31-1.1-.51-1.62-.8a1.57,1.57,0,0,0-1.62-.07,1.51,1.51,0,0,0,1.45,2.66C30.83,48.57,31.48,48.21,32.34,47.75Zm17.79-26a8.1,8.1,0,0,1,1,.35,9.85,9.85,0,0,1,.93.55,1.52,1.52,0,1,0,0-2.52c-.62.35-1.26.67-2,1Zm-17.86-.59c-.69-.36-1.34-.68-2-1a1.56,1.56,0,0,0-2,.3,1.52,1.52,0,0,0,2,2.22c.63-.35,1.27-.66,2-1Zm0,13a9.36,9.36,0,0,1-1-.34,7.69,7.69,0,0,1-.87-.52,1.55,1.55,0,0,0-2.09.25,1.52,1.52,0,0,0,0,1.94,1.54,1.54,0,0,0,2.09.26c.6-.34,1.22-.64,1.9-1ZM50.13,60.92c.71.36,1.32.66,1.9,1a1.6,1.6,0,0,0,2.06-.24,1.51,1.51,0,0,0,0-1.94,1.54,1.54,0,0,0-2-.33c-.63.35-1.27.68-2,1Zm0-26.22,2.07,1.09a1.54,1.54,0,0,0,1.92-.35,1.52,1.52,0,0,0-1.92-2.29l-2.07,1.1Zm0,13.24a7.63,7.63,0,0,1,.92.3,6.48,6.48,0,0,1,.88.51,1.58,1.58,0,0,0,2.15-.2,1.49,1.49,0,0,0,0-1.94,1.56,1.56,0,0,0-2.14-.21,4.19,4.19,0,0,1-1.27.63C50.11,47.15,50,47.42,50.15,47.94Z"/><path class="cls-2" d="M16.37,40.63a24.4,24.4,0,0,1,7.06-16.78c.54-.56,1.12-.64,1.54-.21s.38,1-.14,1.5a23.75,23.75,0,0,0-3.66,4.92,22.92,22.92,0,0,0,3.31,26.81l.46.5a1,1,0,0,1,0,1.41.92.92,0,0,1-1.39-.11,42.82,42.82,0,0,1-3.13-3.88A24.75,24.75,0,0,1,16.37,40.63Z"/><path class="cls-2" d="M66,41.82a24.38,24.38,0,0,1-7,16.64,2.61,2.61,0,0,1-.23.24,1,1,0,0,1-1.4,0,.93.93,0,0,1,0-1.35c.64-.74,1.32-1.45,1.92-2.23a22.92,22.92,0,0,0-1.45-29.65l-.32-.35c-.53-.59-.58-1.15-.14-1.56s1-.34,1.54.28a49.8,49.8,0,0,1,3.55,4.66A24.46,24.46,0,0,1,66,41.82Z"/></g></g></svg>