<svg xmlns="http://www.w3.org/2000/svg" viewBox="0 0 97.24 84.51"><defs><style>.cls-1{fill:#126c69;}</style></defs><g id="Layer_2" data-name="Layer 2"><g id="Layer_1-2" data-name="Layer 1"><path class="cls-1" d="M0,37.34c.63-2.83,1.27-5.67,1.88-8.5q1.92-9,3.82-17.9c.23-1.08.89-1.64,1.72-1.48s1.31,1,1.07,2.09C6.71,19.89,5,28.25,3.1,36.57a7.09,7.09,0,0,0,5.11,8.81,10.38,10.38,0,0,0,2.08.18H72.85c2.36,0,3.5-1.13,3.5-3.48,0-1.45,0-2.91,0-4.36A5.65,5.65,0,0,1,82,32c2.28,0,4.56,0,6.84,0,2.62,0,3.89-1.61,3.34-4.16q-2-9.54-4.1-19.09A6.92,6.92,0,0,0,80.9,2.89q-18.9,0-37.79,0c-8.8,0-17.59,0-26.39,0a7.4,7.4,0,0,0-6.66,3.26A1.42,1.42,0,0,1,8,6.57a1.37,1.37,0,0,1-.29-2A9.65,9.65,0,0,1,14.79.12,14.86,14.86,0,0,1,16.68,0C38,0,59.21.1,80.48,0A10.38,10.38,0,0,1,91.05,8.55c1.23,6.59,2.8,13.1,4.1,19.68a20.15,20.15,0,0,1-.1,4.31,9.62,9.62,0,0,0,0,2.21c.63,3.22,1.46,6.41,2,9.66a22,22,0,0,1-.21,4.49,9.15,9.15,0,0,0,0,1.38c.13,1.51.44,3,.45,4.52,0,6.58,0,13.16,0,19.74a9.73,9.73,0,0,1-7.91,9.77,12.94,12.94,0,0,1-2.64.2H10.72c-5.79,0-9.22-2.68-10.61-8.29,0,0-.07-.1-.11-.14V52.34A6.32,6.32,0,0,0,0,47.4V44.74A5.88,5.88,0,0,0,0,40ZM2.85,60.49V74.11c0,4.7,2.85,7.55,7.57,7.55H86.84c4.66,0,7.53-2.86,7.53-7.49,0-4.21,0-8.42,0-12.63,0-.29,0-.59-.05-1-2.4,2.29-5.17,2.87-8.23,2.87q-37.79-.06-75.57,0a16.58,16.58,0,0,1-2-.1A10.1,10.1,0,0,1,2.85,60.49Zm0-14.87a9.77,9.77,0,0,0,0,1.24,7.19,7.19,0,0,0,.29,1.3c1,3.08,3.57,4.83,7.14,4.83H74.12c1.52,0,2.23.48,2.2,1.47s-.69,1.38-2.18,1.38q-31.85,0-63.69,0a10.33,10.33,0,0,1-7.16-2.5c-.09-.07-.2-.12-.44-.27a12.68,12.68,0,0,0,.09,1.49c.62,3.65,3.43,5.93,7.33,5.93H87A9.58,9.58,0,0,0,89,60.28c3.28-.73,5.75-4.1,5.23-7.06a27.7,27.7,0,0,1-2.54,1.59c-3.32,1.64-6.88.95-10.36.9-.35,0-1-.82-1-1.26s.53-1,.95-1.32c.24-.2.73-.13,1.1-.13,1.9,0,3.8.06,5.69-.08a6.79,6.79,0,0,0,6.17-7.59c-.41-2.77-1.11-5.49-1.7-8.31a3.43,3.43,0,0,0-.39.25C88.59,40.18,85,43.07,81.34,46a10.59,10.59,0,0,1-6.91,2.43q-32.09,0-64.17,0a14.48,14.48,0,0,1-2.45-.21A9.86,9.86,0,0,1,2.9,45.62Zm76.3-1.55,11.55-9.26c-2.9,0-5.55,0-8.2,0-2.28,0-3.35,1.09-3.35,3.38Z" transform="translate(0 0)"/><path class="cls-1" d="M27.73,72.71c0-1.14,0-2.28,0-3.41s.57-1.76,1.44-1.74,1.4.65,1.4,1.68q0,3.51,0,7c0,1-.55,1.67-1.39,1.69s-1.44-.65-1.45-1.73S27.73,73.88,27.73,72.71Z" transform="translate(0 0)"/><path class="cls-1" d="M77.47,72.71c0-1.17,0-2.34,0-3.51,0-1,.59-1.66,1.44-1.64a1.44,1.44,0,0,1,1.39,1.59q0,3.6,0,7.2A1.45,1.45,0,0,1,78.92,78c-.84,0-1.43-.63-1.44-1.64C77.46,75.11,77.47,73.91,77.47,72.71Z" transform="translate(0 0)"/><path class="cls-1" d="M47.64,72.67c0-1.16,0-2.33,0-3.5a1.43,1.43,0,1,1,2.84,0q0,3.55,0,7.11A1.49,1.49,0,0,1,49,78c-.83,0-1.39-.65-1.4-1.67C47.63,75.08,47.64,73.87,47.64,72.67Z" transform="translate(0 0)"/><path class="cls-1" d="M60.41,72.85c0,1.17,0,2.34,0,3.5a1.42,1.42,0,1,1-2.83.05q0-3.65,0-7.3a1.42,1.42,0,1,1,2.83.05C60.42,70.38,60.41,71.62,60.41,72.85Z" transform="translate(0 0)"/><path class="cls-1" d="M17.8,72.7c0-1.2,0-2.4,0-3.59a1.41,1.41,0,1,1,2.82,0c0,2.46,0,4.93,0,7.39a1.45,1.45,0,0,1-1.5,1.5,1.43,1.43,0,0,1-1.32-1.55C17.78,75.17,17.8,73.94,17.8,72.7Z" transform="translate(0 0)"/><path class="cls-1" d="M40.51,72.8c0,1.13,0,2.27,0,3.4S39.94,78,39.08,78s-1.4-.66-1.4-1.69q0-3.49,0-7c0-1,.57-1.67,1.4-1.69s1.43.64,1.44,1.73S40.51,71.63,40.51,72.8Z" transform="translate(0 0)"/><path class="cls-1" d="M67.54,72.66c0-1.17,0-2.34,0-3.51a1.42,1.42,0,1,1,2.83,0q0,3.65,0,7.29a1.42,1.42,0,1,1-2.83-.05C67.52,75.12,67.54,73.89,67.54,72.66Z" transform="translate(0 0)"/><path class="cls-1" d="M10.66,71.89c0,1,0,1.89,0,2.84a1.42,1.42,0,1,1-2.83,0q0-2.83,0-5.67a1.42,1.42,0,1,1,2.83.05C10.68,70.07,10.66,71,10.66,71.89Z" transform="translate(0 0)"/><path class="cls-1" d="M90.25,71.92c0,1,0,1.89,0,2.84a1.4,1.4,0,0,1-1.36,1.5,1.38,1.38,0,0,1-1.45-1.43q-.08-2.92,0-5.85a1.41,1.41,0,1,1,2.81.11C90.27,70,90.25,71,90.25,71.92Z" transform="translate(0 0)"/></g></g></svg>