<svg xmlns="http://www.w3.org/2000/svg" viewBox="0 0 18.59 25.26">
   <defs>
      <style>.cls-1{fill:gray;}</style>
   </defs>
   <g id="Layer_2" data-name="Layer 2">
      <g id="Layer_1-2" data-name="Layer 1">
         <path class="cls-1" d="M9.28,25.26c-.22-.3-.43-.56-.62-.84-1.86-2.68-3.79-5.33-5.55-8.08A33.54,33.54,0,0,1,.69,11.6,7.75,7.75,0,0,1,2.8,2.51a9.65,9.65,0,0,1,12.73-.23,8.53,8.53,0,0,1,3,5.69,6.52,6.52,0,0,1-.44,3,38.19,38.19,0,0,1-4.31,8C12.41,21,10.93,23,9.48,25Zm0-20.39a4.29,4.29,0,1,0,4.29,4.25A4.28,4.28,0,0,0,9.29,4.87Z"/>
      </g>
   </g>
</svg>