<svg xmlns="http://www.w3.org/2000/svg" viewBox="0 0 21.73 21.52"><defs><style>.cls-1{fill:gray;}</style></defs><g id="Layer_2" data-name="Layer 2"><g id="Layer_1-2" data-name="Layer 1"><path class="cls-1" d="M.15,4.69c.91-.41,1.8-.82,2.69-1.21Q6.65,1.77,10.47.1a1.14,1.14,0,0,1,.85,0c3.34,1.47,6.66,3,10,4.47l.34.18L19.15,5.85C16.56,7,14,8.19,11.38,9.33a1.06,1.06,0,0,1-.8,0C7.15,7.87,3.73,6.34.31,4.82A.76.76,0,0,1,.15,4.69Z"/><path class="cls-1" d="M9.93,21.5c-.55-.24-1.06-.45-1.56-.68L.47,17.21C.18,17.08,0,17,0,16.59q0-4.73,0-9.45a2.43,2.43,0,0,1,0-.28,2,2,0,0,1,.37.08l9.21,4.23a.73.73,0,0,1,.34.5c0,3.19,0,6.38,0,9.56A1.22,1.22,0,0,1,9.93,21.5Z"/><path class="cls-1" d="M21.72,6.81v.78q0,4.42,0,8.87a.7.7,0,0,1-.44.76c-3.06,1.38-6.11,2.78-9.17,4.17a4,4,0,0,1-.38.13c0-1.25,0-2.46,0-3.66,0-2,0-4,0-6a.61.61,0,0,1,.39-.67l9.27-4.22A3.12,3.12,0,0,1,21.72,6.81Z"/></g></g></svg>