<svg xmlns="http://www.w3.org/2000/svg" viewBox="0 0 19.67 25.12"><defs><style>.cls-1{fill:gray;}</style></defs><g id="Layer_2" data-name="Layer 2"><g id="Layer_1-2" data-name="Layer 1"><path class="cls-1" d="M9.84,25.12a24.17,24.17,0,0,1-5.75-.74A9.35,9.35,0,0,1,1.5,23.3,3.82,3.82,0,0,1,.33,22.17,2.11,2.11,0,0,1,0,21a9.71,9.71,0,0,1,4.61-8.33c.31-.21.32-.2.61,0a7.73,7.73,0,0,0,9.39-.13c.09-.07.15-.09.25,0a9.75,9.75,0,0,1,4.69,7c.07.4.08.81.11,1.22a2.44,2.44,0,0,1-.87,2.1A6.34,6.34,0,0,1,16.68,24a15.7,15.7,0,0,1-4,.89C11.7,25,10.77,25.05,9.84,25.12Z" transform="translate(0)"/><path class="cls-1" d="M9.85,0A6.5,6.5,0,1,1,3.34,6.46,6.5,6.5,0,0,1,9.85,0Z" transform="translate(0)"/></g></g></svg>