<svg xmlns="http://www.w3.org/2000/svg" viewBox="0 0 23.65 20.03"><defs><style>.cls-1{fill:gray;}</style></defs><g id="Layer_2" data-name="Layer 2"><g id="Layer_1-2" data-name="Layer 1"><path class="cls-1" d="M23.65,7c0,.24-.09.47-.14.71a8.24,8.24,0,0,1-1.57,3.16,31.29,31.29,0,0,1-5.42,5.43C15,17.56,13.41,18.79,11.85,20h0l-1.59-1.29c-1.79-1.46-3.6-2.9-5.34-4.4A18.26,18.26,0,0,1,1,9.65,6.57,6.57,0,0,1,.05,7a1.21,1.21,0,0,0,0-.18V5.68a1.42,1.42,0,0,0,.05-.22A6.45,6.45,0,0,1,3,.94a6.31,6.31,0,0,1,7.87,1.14l.78.9.16.15,1-1.06A6.61,6.61,0,0,1,16.08.14L16.75,0h1.11a2.61,2.61,0,0,0,.27.06,6.2,6.2,0,0,1,5.31,4.81c.08.34.14.69.21,1Z"/></g></g></svg>