<svg xmlns="http://www.w3.org/2000/svg" viewBox="0 0 58.34 49.8"><defs><style>.cls-1{fill:#fff;}</style></defs><g id="Layer_2" data-name="Layer 2"><g id="Layer_1-2" data-name="Layer 1"><path class="cls-1" d="M58.17,14.18c-.12-.58-.23-1.15-.36-1.72A15.9,15.9,0,0,0,44.23.16L44,.1,43.72,0,40.8,0l-.75.13L38.92.38a16.81,16.81,0,0,0-8.36,4.9c-.48.5-.95,1-1.43,1.53l-.47-.54-.82-.94C23-.24,13.72-1.57,7.64,2.44A16.3,16.3,0,0,0,.14,14a1.21,1.21,0,0,1-.05.18l0,.2,0,3.1.12.39A16.57,16.57,0,0,0,2.5,24.66,44.35,44.35,0,0,0,11.93,36c2.92,2.53,6,5,8.91,7.39l3.72,3,2.61,2.12,1.49,1.21h1l3.68-2.93q3.85-3.06,7.69-6.14a74.29,74.29,0,0,0,13-13A20.28,20.28,0,0,0,58,19.74c.09-.39.17-.79.24-1.18l.11-.51,0-2.87ZM29.72,44.45a4.26,4.26,0,0,1-.48.33,1.32,1.32,0,0,1-.34-.21l-2.13-1.68a163,163,0,0,1-13.64-11.5,37.48,37.48,0,0,1-8-10.53A10.9,10.9,0,0,1,5,11.75,12.62,12.62,0,0,1,11.7,4.81a11.92,11.92,0,0,1,4-.67,13.12,13.12,0,0,1,5.95,1.45,11.46,11.46,0,0,1,5.89,6.77,3.3,3.3,0,0,0,.17.45l1,2.43,2.9-4.68a13.26,13.26,0,0,1,6.64-5.79,11.32,11.32,0,0,1,8.9.45,12.45,12.45,0,0,1,6.42,7.15,12.21,12.21,0,0,1-1.93,11.69A67.34,67.34,0,0,1,38.21,37.81Z"/></g></g></svg>