<svg xmlns="http://www.w3.org/2000/svg" viewBox="0 0 100 100"><defs><style>.cls-1{fill:#1e398d;}.cls-1,.cls-2{fill-rule:evenodd;}.cls-2{fill:#00aeef;}.cls-3{fill:#083473;}</style></defs><g id="Layer_2" data-name="Layer 2"><g id="Layer_1-2" data-name="Layer 1"><path class="cls-1" d="M13.45,43a.72.72,0,0,1,.76-.77h7.48c2.29.26,3.89,1.43,4,4.5v4.15a5.7,5.7,0,0,1-.22,1.74,4.19,4.19,0,0,1-4.15,3.13H18.16v5.08c0,.38-.32.57-.71.57H14.09a.64.64,0,0,1-.71-.69L13.45,43ZM18.19,47h2a.82.82,0,0,1,.82.82v2.4a.82.82,0,0,1-.82.81h-2V47Z"/><path class="cls-1" d="M29.42,42.26h5.23c3.05.18,4.71,1.79,4.66,5.12V59.7a1.82,1.82,0,0,1-1.79,1.68H30.68a4,4,0,0,1-3.8-3.2,25.35,25.35,0,0,1-.08-4.93c0-2.4,1.59-4.79,4.25-4.79h2.78c.82,0,.78-1.81,0-1.75H29.48a.71.71,0,0,1-.79-.68V42.8c0-.41.34-.54.73-.54ZM32.3,52.92h1.6a.69.69,0,0,1,.68.69v2.77a.69.69,0,0,1-.68.69H32.3a.69.69,0,0,1-.68-.69V53.61a.69.69,0,0,1,.68-.69Z"/><path class="cls-1" d="M40.92,43.13v7.79a4.77,4.77,0,0,0,4.76,4.27h2.21c.91,0,.85,1.53,0,1.53H43.12c-.52,0-.71.27-.71.73v3.43a.61.61,0,0,0,.65.6h4.42c3.68,0,5.78-1.77,5.78-5.73V42.83a.52.52,0,0,0-.52-.59H49c-.34,0-.54.38-.54.65V50a.43.43,0,0,1-.44.48H46.3a.56.56,0,0,1-.63-.6V43c0-.45-.18-.79-.68-.79H41.43c-.41,0-.51.41-.51.91Z"/><path class="cls-2" d="M55.13,46.33V43a.65.65,0,0,1,.65-.66h.81c2.09-.44,2.59-1.66,3.86-3,.79-.85,1.48-1.07,2-.17v3.21h1.91A.66.66,0,0,1,65,43v3.36a.67.67,0,0,1-.66.66H62.43v13.8a.65.65,0,0,1-.65.65H58.41a.66.66,0,0,1-.66-.65V47h-2a.66.66,0,0,1-.65-.66Z"/><path class="cls-2" d="M79,60.57a.82.82,0,0,1-.82.81H75a.82.82,0,0,1-.82-.81V47.9c0-1.37-2.73-1.58-2.73,0V60.57a.82.82,0,0,1-.83.81H67.47a.82.82,0,0,1-.82-.81V43a.82.82,0,0,1,.82-.82h3.15a.83.83,0,0,1,.83.82v.24a4.9,4.9,0,0,1,6.74.35c3.2-3.67,8.68-.4,8.42,3.62,0,4.45,0,8.86,0,13.35a.82.82,0,0,1-.83.81H82.6a.82.82,0,0,1-.82-.81V48c-.18-1.76-2.84-1.35-2.83,0,0,4.18,0,8.36,0,12.58Z"/><path class="cls-3" d="M50,2A48,48,0,1,1,2,50,48.05,48.05,0,0,1,50,2m0-2a50,50,0,1,0,50,50A50,50,0,0,0,50,0Z"/></g></g></svg>