<svg xmlns="http://www.w3.org/2000/svg" viewBox="0 0 100 100"><defs><style>.cls-1{fill:#5f259f;}</style></defs><g id="Layer_2" data-name="Layer 2"><g id="Layer_1-2" data-name="Layer 1"><path class="cls-1" d="M48.17,100c-1.5-.15-3-.25-4.5-.45a50,50,0,0,1-42-36.93A47.92,47.92,0,0,1,.17,46.14,48.79,48.79,0,0,1,10,20,48.67,48.67,0,0,1,42.56.61,48.48,48.48,0,0,1,81.85,11.5,48,48,0,0,1,99.43,42.67,48.52,48.52,0,0,1,88.06,82.34,49.05,49.05,0,0,1,56.89,99.51c-1.57.23-3.16.33-4.74.49ZM39,33.75H26.86c-1.07,0-1.46.32-1.54,1.39a13.32,13.32,0,0,0,.06,3.09,3.57,3.57,0,0,0,3.55,3.13c.93,0,1.86,0,2.79,0,1.16,0,1.16,0,1.16,1.14q0,6.49,0,13a19.53,19.53,0,0,0,.67,5.11c1.24,4.64,3.95,8,8.65,9.36A19.34,19.34,0,0,0,54,69.56c.91-.3.93-.3.93.66,0,2.68,0,5.36,0,8a4.28,4.28,0,0,0,4.35,4.35c1.28,0,2.55,0,3.82,0a1.63,1.63,0,0,0,1.66-1.66c0-.32,0-.64,0-1V42.48c0-1.42,0-1.42,1.39-1.42H71c1.19,0,1.54-.37,1.56-1.59,0-.8,0-1.59,0-2.39a3.49,3.49,0,0,0-3.67-3.63c-1.91,0-3.83,0-5.74,0a1.51,1.51,0,0,1-1.31-.59c-.72-.85-1.46-1.68-2.2-2.52Q53.35,23.16,47.07,16A5.11,5.11,0,0,0,43,14c-2.58,0-4.87,1.18-7.25,2a1.06,1.06,0,0,0-.3,1.74c.18.21.38.38.57.57L51.4,32.92c.19.18.53.34.45.61s-.51.21-.78.21Z"/><path class="cls-1" d="M54.06,51.06c0,2.95,0,5.89,0,8.84a1.14,1.14,0,0,1-.89,1.28,14.18,14.18,0,0,1-5.88.71c-3.39-.32-5.28-2.33-5.57-5.76-.26-3.15-.07-6.31-.12-9.47,0-1.53,0-3.07,0-4.61,0-.64.2-.9.87-.89q5.34,0,10.67,0c.77,0,.94.31.93,1C54.05,45.12,54.06,48.09,54.06,51.06Z"/></g></g></svg>