<svg xmlns="http://www.w3.org/2000/svg" viewBox="0 0 93.02 19.65"><defs><style>.cls-1{fill:#072654;}.cls-1,.cls-2{fill-rule:evenodd;}.cls-2{fill:#3395ff;}</style></defs><g id="Layer_2" data-name="Layer 2"><g id="Layer_1-2" data-name="Layer 1"><g id="Page-1"><g id="Group"><path id="Fill-1" class="cls-1" d="M22.15,7.41a1.93,1.93,0,0,1-.86,1.21A3.38,3.38,0,0,1,19.51,9H17.08l.86-3.19h2.43a2.38,2.38,0,0,1,1.57.39,1.14,1.14,0,0,1,.21,1.2m2.51-.07a2.7,2.7,0,0,0-.38-2.65,4,4,0,0,0-3-.92H15.89L12.62,16h2.64L16.57,11H18.3a1.85,1.85,0,0,1,.92.19.83.83,0,0,1,.39.67l.47,4H22.9l-.45-3.78a1.51,1.51,0,0,0-1.16-1.49,5,5,0,0,0,2.17-1.25,4.4,4.4,0,0,0,1.2-2.09"/><path id="Fill-3" class="cls-1" d="M31.07,11.59a3.89,3.89,0,0,1-1,1.88,2.34,2.34,0,0,1-1.65.65,1.36,1.36,0,0,1-1.32-.64,2.56,2.56,0,0,1,0-1.86,4.09,4.09,0,0,1,1-1.9A2.38,2.38,0,0,1,29.76,9a1.32,1.32,0,0,1,1.3.66,2.72,2.72,0,0,1,0,1.89Zm1.15-4.31-.33,1.23a1.89,1.89,0,0,0-.83-1.06,2.75,2.75,0,0,0-1.52-.4,4.32,4.32,0,0,0-2.13.58,5.6,5.6,0,0,0-1.8,1.61,7.15,7.15,0,0,0-1.12,2.38A5.14,5.14,0,0,0,24.34,14a2.58,2.58,0,0,0,.94,1.56,2.92,2.92,0,0,0,1.84.55,4.12,4.12,0,0,0,1.73-.38,4,4,0,0,0,1.39-1L29.9,16h2.55l2.32-8.67Z"/><polygon id="Fill-5" class="cls-1" points="43.94 7.28 36.53 7.28 36.01 9.21 40.32 9.21 34.62 14.14 34.13 15.95 41.78 15.95 42.3 14.02 37.68 14.02 43.47 9.02 43.94 7.28"/><path id="Fill-7" class="cls-1" d="M50.46,11.57a4,4,0,0,1-1,1.92,2.3,2.3,0,0,1-1.63.63c-1.34,0-1.77-.85-1.32-2.55a4.08,4.08,0,0,1,1-1.91A2.38,2.38,0,0,1,49.17,9a1.35,1.35,0,0,1,1.3.64,2.73,2.73,0,0,1,0,1.91M52,7.6a4.26,4.26,0,0,0-2.25-.55,6.14,6.14,0,0,0-2.57.55,5.69,5.69,0,0,0-2,1.58,6.49,6.49,0,0,0-1.2,2.39,4.61,4.61,0,0,0-.08,2.4A2.56,2.56,0,0,0,45,15.54a4.22,4.22,0,0,0,2.27.55,5.86,5.86,0,0,0,2.54-.55,5.58,5.58,0,0,0,2-1.57,6.61,6.61,0,0,0,1.2-2.4,4.57,4.57,0,0,0,.08-2.39A2.6,2.6,0,0,0,52,7.6"/><path id="Fill-9" class="cls-1" d="M78.61,11.59a4,4,0,0,1-1,1.88,2.34,2.34,0,0,1-1.65.65,1.36,1.36,0,0,1-1.32-.64,2.51,2.51,0,0,1,0-1.86,4,4,0,0,1,1-1.9A2.36,2.36,0,0,1,77.31,9a1.33,1.33,0,0,1,1.3.66,2.73,2.73,0,0,1,0,1.89Zm1.16-4.31-.33,1.23a1.89,1.89,0,0,0-.83-1.06,2.77,2.77,0,0,0-1.52-.4A4.38,4.38,0,0,0,75,7.63a5.67,5.67,0,0,0-1.79,1.61A7.17,7.17,0,0,0,72,11.62,5.26,5.26,0,0,0,71.89,14a2.52,2.52,0,0,0,.93,1.56,3,3,0,0,0,1.85.55,4.15,4.15,0,0,0,1.73-.38,4.1,4.1,0,0,0,1.39-1L77.44,16H80l2.33-8.67Z"/><path id="Fill-11" class="cls-1" d="M61,9.6l.65-2.36a2,2,0,0,0-.88-.17,3.51,3.51,0,0,0-1.68.44,3.68,3.68,0,0,0-1.19,1l.33-1.27H55.73L53.38,16H56l1.21-4.53a2.9,2.9,0,0,1,1-1.55,2.64,2.64,0,0,1,1.71-.56A2.58,2.58,0,0,1,61,9.6"/><path id="Fill-13" class="cls-1" d="M68.23,11.62a3.78,3.78,0,0,1-1,1.86,2.29,2.29,0,0,1-1.64.64,1.36,1.36,0,0,1-1.31-.65,2.63,2.63,0,0,1,0-1.88,4,4,0,0,1,1-1.89A2.34,2.34,0,0,1,66.94,9a1.3,1.3,0,0,1,1.28.68,2.7,2.7,0,0,1,0,1.9m1.81-4a2.86,2.86,0,0,0-1.83-.58,4.05,4.05,0,0,0-1.86.45,4,4,0,0,0-1.43,1.21V8.66l.44-1.38H62.84l-.64,2.4,0,.08-2.65,9.89h2.58l1.34-5a1.78,1.78,0,0,0,.81,1,2.89,2.89,0,0,0,1.53.38,4.44,4.44,0,0,0,2.15-.55A5.26,5.26,0,0,0,69.71,14a6.9,6.9,0,0,0,1.11-2.35A5.35,5.35,0,0,0,71,9.24,2.64,2.64,0,0,0,70,7.63"/><path id="Fill-15" class="cls-1" d="M93,7.28H90.5l-.41.58A1.71,1.71,0,0,0,90,8l0,.06-3.3,4.6L86,7.28h-2.7l1.37,8.18-3,4.19h2.7l.73-1,.06-.09.86-1.21,0,0,3.83-5.42L93,7.28Z"/><polygon id="Fill-17" class="cls-2" points="5.98 5.17 5.21 8.01 9.63 5.15 6.74 15.95 9.68 15.95 13.95 0 5.98 5.17"/><path id="Fill-19" class="cls-1" d="M1.22,11.41,0,16H6L8.49,6.72,1.22,11.41"/></g></g></g></g></svg>