<svg xmlns="http://www.w3.org/2000/svg" viewBox="0 0 34.77 34.77"><defs><style>.cls-1{fill:#a25359;}.cls-2{fill:#fff5fb;}</style></defs><g id="Layer_2" data-name="Layer 2"><g id="Layer_1-2" data-name="Layer 1"><circle class="cls-1" cx="17.39" cy="17.39" r="17.39"/><path class="cls-2" d="M11.2,18.27l.67,0a11.06,11.06,0,0,0,1.63,0,8.64,8.64,0,0,0,1.9-.37,4.3,4.3,0,0,0,1.67-1A3,3,0,0,0,18,15.05c0-.09,0-.17,0-.27H10.56l.19-.3,1-1.45a.16.16,0,0,1,.16-.09h5.86a.73.73,0,0,0-.05-.12,2.87,2.87,0,0,0-1.16-1.18,4.53,4.53,0,0,0-2-.64c-.71-.06-1.42,0-2.14-.07l-1.69,0h0l0-.06,1.1-1.65a.15.15,0,0,1,.15-.08H24.22l0,.07c-.37.56-.73,1.12-1.09,1.68a.16.16,0,0,1-.16.08H19.7a5.38,5.38,0,0,1,1,2h3.56a.93.93,0,0,0,0,.1l-1.08,1.65a.16.16,0,0,1-.15.08l-2.19,0c-.05.22-.08.43-.14.64a5,5,0,0,1-2.14,2.94,7.33,7.33,0,0,1-3.13,1.12c-.32,0-.65.08-1,.12l.08.1q1.71,2.11,3.41,4.25t3.41,4.25a.94.94,0,0,1,.07.37h-.48l-1.5,0-.71,0a.22.22,0,0,1-.19-.09L16.28,26l-2.83-3.36-2.16-2.56a.16.16,0,0,1,0-.11c0-.54,0-1.09-.05-1.63C11.19,18.32,11.2,18.3,11.2,18.27Z"/></g></g></svg>