<svg xmlns="http://www.w3.org/2000/svg" viewBox="0 0 24.56 23.55"><defs><style>.cls-1{fill:gray;}</style></defs><g id="Layer_2" data-name="Layer 2"><g id="Layer_1-2" data-name="Layer 1"><path class="cls-1" d="M23.12,10.6H15.47a2.75,2.75,0,0,0-3,3v1.9a2.7,2.7,0,0,0,2.75,2.72h7.92V22a1.42,1.42,0,0,1-1.55,1.55c-.65,0-1.3,0-1.95,0H1.79C.48,23.55,0,23.07,0,21.77V7.09C0,5.88.47,5.41,1.68,5.41H21.4c1.22,0,1.71.5,1.71,1.73S23.12,9.39,23.12,10.6Z"/><path class="cls-1" d="M19.06,11.56h4A1.34,1.34,0,0,1,24.54,13c0,1,0,2,0,3a1.35,1.35,0,0,1-1.48,1.4h-8A1.37,1.37,0,0,1,13.55,16c-.05-1-.05-2,0-3a1.34,1.34,0,0,1,1.54-1.39Zm-1.18,2.92a1,1,0,0,0-1-1,1,1,0,0,0,0,2A1,1,0,0,0,17.88,14.48Z"/><path class="cls-1" d="M20.31,4.52H9.39l0-.08.37-.11,8.08-2.26C19,1.73,19.6,2.05,20,3.26,20.07,3.65,20.18,4,20.31,4.52Z"/><path class="cls-1" d="M4.63,4.38,11.54.94,13.07.18a1.39,1.39,0,0,1,2,.67c.15.29.29.59.46.94l-5.3,1.5c-1.2.34-2.38.7-3.59,1a18.36,18.36,0,0,1-1.95.3Z"/></g></g></svg>