<svg xmlns="http://www.w3.org/2000/svg" viewBox="0 0 132.13 85.25"><defs><style>.cls-1{fill:#126c69;}</style></defs><g id="Layer_2" data-name="Layer 2"><g id="Layer_1-2" data-name="Layer 1"><path class="cls-1" d="M10.66,19.18c0-2.11,0-4,0-6A12.78,12.78,0,0,1,23.87,0h84.42c7.64,0,13.14,5.54,13.18,13.2,0,1.95,0,3.89,0,6,1.16,0,2.21,0,3.26,0a7.38,7.38,0,0,1,7.37,7.39q.06,21.38,0,42.74a7.4,7.4,0,0,1-7.24,7.39c-.35,0-.71,0-1.26,0v5.71c0,2.1-.71,2.81-2.78,2.82-1.73,0-3.46,0-5.19,0a2.25,2.25,0,0,1-2.42-1.84q-.93-3.32-1.88-6.64H20.8c-.61,2.16-1.21,4.29-1.83,6.41-.48,1.65-1,2.06-2.77,2.07s-3.37,0-5.06,0-2.59-.76-2.61-2.58,0-3.89,0-5.87c-.83-.06-1.53-.06-2.22-.17A7.44,7.44,0,0,1,0,69Q0,51.72,0,34.41c0-2.53,0-5.06,0-7.59a7.46,7.46,0,0,1,7.68-7.64ZM66,72.45h57.92c2.63,0,3.91-1.15,3.91-3.6q0-20.89,0-41.8c0-2.35-1.27-3.59-3.64-3.6-3.15,0-6.3,0-9.45,0-2.8,0-3.94,1.15-4,4v24.9c0,2.47-.61,3.1-3,3.1H24.3c-2.35,0-3-.65-3-3q0-12.57,0-25.16c0-2.55-1.21-3.77-3.73-3.78H8.26c-2.88,0-4,1.14-4,4.06V68.24c0,3.16,1.05,4.21,4.23,4.21ZM25.58,37.37c3.18-2.73,6.65-3.31,10.4-3.3q30.29.09,60.58,0a14.68,14.68,0,0,1,9.69,3s.16,0,.3,0c0-3.41,0-6.83,0-10.24a7.45,7.45,0,0,1,7.57-7.6h3.05c0-2.49.12-4.8,0-7.09A8.34,8.34,0,0,0,109,4.29Q66,4.23,23.12,4.29a8,8,0,0,0-7.79,6.13,66.14,66.14,0,0,0-.55,8.76h2.3c5.59,0,8.5,2.93,8.5,8.56Zm81,13.71V47.47c0-5.52-3.58-9.1-9.06-9.11H34.39a8.39,8.39,0,0,0-7.89,4.71c-1.37,2.56-.86,5.32-.89,8ZM12.86,76.78v4.14h2.32l1.16-4.14Zm104.08,4.11h2.3V76.8h-3.45Z" transform="translate(0 0)"/></g></g></svg>