<svg xmlns="http://www.w3.org/2000/svg" viewBox="0 0 38.66 36.78"><defs><style>.cls-1{fill:#a25359;}</style></defs><g id="Layer_2" data-name="Layer 2"><g id="Layer_1-2" data-name="Layer 1"><path class="cls-1" d="M19.35,0c.31.75.59,1.42.88,2.09L24.64,12.6a.44.44,0,0,0,.43.31l8.74.73,4.64.38.21,0-.28.26L28.37,23a.49.49,0,0,0-.19.58l3,12.89.07.36-1.05-.63L19.62,29.72a.44.44,0,0,0-.55,0L7.74,36.58l-.35.2.34-1.45q1.38-5.89,2.77-11.79a.5.5,0,0,0-.18-.58l-10-8.64L0,14.05l1.9-.16,11.74-1a.42.42,0,0,0,.4-.3c1.69-4,3.4-8.08,5.1-12.12C19.19.36,19.25.22,19.35,0Z"/></g></g></svg>