<svg xmlns="http://www.w3.org/2000/svg" viewBox="0 0 114.31 70.94"><defs><style>.cls-1{fill:#126c69;}</style></defs><g id="Layer_2" data-name="Layer 2"><g id="Layer_1-2" data-name="Layer 1"><path class="cls-1" d="M10.85,33.38h26.2c3.6,0,5.42,1.84,5.42,5.46V67.52C42.47,69.6,42,70,40,70H33.76c-2.18,0-2.57-.38-2.57-2.52V45.84H10.85V67.4c0,2.27-.37,2.64-2.69,2.64h-6C.5,70,0,69.55,0,68V2.1C0,.49.5,0,2.14,0H8.63c1.72,0,2.22.52,2.22,2.27v31.1ZM3.36,3.29V66.72H7.57V44.92c0-2,.43-2.42,2.42-2.42H32.06c2,0,2.42.46,2.42,2.43V66.74h4.71V65.53q0-13.33,0-26.67c0-1.84-.36-2.19-2.2-2.19H10.21c-2.23,0-2.64-.4-2.64-2.57V3.29Z" transform="translate(0)"/><path class="cls-1" d="M103.45,33.38V2.48c0-2,.44-2.47,2.5-2.47s4.25,0,6.37,0c1.46,0,2,.55,2,2q0,4.48,0,9c0,1.31-.58,2-1.58,2.07S111,12.3,111,11c0-2.52,0-5,0-7.63h-4.3v30.9c0,2-.47,2.44-2.41,2.44h-27c-1.84,0-2.19.36-2.19,2.2q0,13.34,0,26.67V66.7h4.72V65.45q0-10.28,0-20.54c0-2,.45-2.41,2.43-2.41h22.07c2,0,2.4.43,2.4,2.44V66.72H111v-3c0-2.67,0-5.35,0-8,0-1.54,1.29-2.45,2.38-1.7a2.21,2.21,0,0,1,.84,1.54c.07,4.24,0,8.49,0,12.74A1.55,1.55,0,0,1,112.58,70q-3.66.06-7.32,0c-1.32,0-1.8-.65-1.81-2.21v-22H83.11V67.68c0,1.89-.47,2.35-2.38,2.36-2.28,0-4.56,0-6.84,0-1.5,0-2-.57-2.06-2.09q0-14.8,0-29.61a4.68,4.68,0,0,1,5-4.95q12.57,0,25.14,0Z" transform="translate(0)"/><path class="cls-1" d="M58.86,67.68c1.2,0,2.33,0,3.46,0,1.3,0,2,.63,2,1.64s-.74,1.61-2,1.61H51.93c-1.23,0-1.93-.58-2-1.54s.7-1.68,2-1.71,2.28,0,3.51,0V25.76H27.14c-2.24,0-2.64-.4-2.64-2.59V16.68c0-1.9.44-2.32,2.4-2.33H87.09c2.41,0,2.71.3,2.71,2.73,0,2.12,0,4.25,0,6.37,0,1.8-.51,2.3-2.33,2.3H58.86Zm27.63-50H27.86v4.76H86.49Z" transform="translate(0)"/><path class="cls-1" d="M114.29,41.6c0,.78,0,1.57,0,2.35a1.47,1.47,0,0,1-1.46,1.54,1.43,1.43,0,0,1-1.72-1.38,46.93,46.93,0,0,1,0-5.17,1.46,1.46,0,0,1,1.68-1.44,1.52,1.52,0,0,1,1.52,1.63C114.31,40,114.29,40.77,114.29,41.6Z" transform="translate(0)"/><path class="cls-1" d="M114.29,25.24c0,.83,0,1.65,0,2.47a1.51,1.51,0,0,1-1.57,1.57,1.43,1.43,0,0,1-1.61-1.39,51.86,51.86,0,0,1,0-5.29,1.43,1.43,0,0,1,1.66-1.32,1.47,1.47,0,0,1,1.51,1.49C114.33,23.59,114.29,24.42,114.29,25.24Z" transform="translate(0)"/></g></g></svg>