<svg xmlns="http://www.w3.org/2000/svg" viewBox="0 0 30.4 31.91"><defs><style>.cls-1{fill:#0d6c68;}</style></defs><g id="Layer_2" data-name="Layer 2"><g id="Layer_1-2" data-name="Layer 1"><path class="cls-1" d="M28.91,23l.24.4A2.58,2.58,0,0,1,28.62,27a2.62,2.62,0,0,0-.95,1.89,2.65,2.65,0,0,1-2.59,2.73,21.12,21.12,0,0,1-2.25.2,61.54,61.54,0,0,1-11.11-.35C10.35,31.28,9,31.16,7.6,31a.81.81,0,0,1-.84-.91c0-.91,0-1.81,0-2.71V16.78c0-.75.09-.87.79-1.08A2.51,2.51,0,0,0,9,14.13,13.22,13.22,0,0,1,11.89,10,33.8,33.8,0,0,1,14.84,7.5a5.56,5.56,0,0,0,2.42-3.44c.11-.65.15-1.3.2-1.95A2,2,0,0,1,19.58,0a1.59,1.59,0,0,1,1.56.85,6,6,0,0,1,.45,5.41C21,7.65,20.39,9,19.79,10.38a4.17,4.17,0,0,0-.31.9.71.71,0,0,0,.65.94,4,4,0,0,0,.78.07l3.93-.08a10,10,0,0,1,3.39.49,2.92,2.92,0,0,1,1.82,3.83,10.67,10.67,0,0,1-.53,1.2.73.73,0,0,0,0,.8,7.51,7.51,0,0,1,.63,1.19,2,2,0,0,1-.41,2.34Z"/><path class="cls-1" d="M0,23.45V16.64c0-.7.22-.92.91-.93H5c.67,0,.9.22.9.88V30.31c0,.67-.22.89-.89.89-1.37,0-2.73,0-4.1,0C.22,31.2,0,31,0,30.3Z"/></g></g></svg>