<svg xmlns="http://www.w3.org/2000/svg" viewBox="0 0 39.34 38.7"><defs><style>.cls-1{fill:#a25359;}</style></defs><g id="Layer_2" data-name="Layer 2"><g id="Layer_1-2" data-name="Layer 1"><path class="cls-1" d="M31.89,14c-.21.22-.41.45-.64.66s-.47.39-.7.62l1-.3,0,.08-1.47.74s0,0,0,0a8.22,8.22,0,0,0,2.66,3.13,4.78,4.78,0,0,1,.65.54.57.57,0,0,1,.06.92,12.44,12.44,0,0,1-1,1c-.15.16-.32.31-.47.47a.62.62,0,0,0-.1.73A2.74,2.74,0,0,0,33.6,24.1c-.13.66-.6.92-1.2,1.09a.87.87,0,0,0,.16.14c.23.17.47.32.69.49A.66.66,0,0,1,33.06,27a.93.93,0,0,0-.26.1.63.63,0,0,0-.4.7c0,.65.05,1.29.07,1.94a.22.22,0,0,1,0,.08c-.14.85-.43,1.15-1.28,1.15-1.09,0-2.18-.05-3.28-.07a9.32,9.32,0,0,0-5.71,1.35,12,12,0,0,0-1.27,1.11,1.45,1.45,0,0,0-.17.25c-.71-.67-1.39-1.26-2-1.91a9.1,9.1,0,0,1-2.13-3.32,6.76,6.76,0,0,1-.21-3.83.91.91,0,0,0,0-.23,6.62,6.62,0,0,0-.71,1.8,8.59,8.59,0,0,0,.78,5.68,9,9,0,0,0,5.87,4.77,16.16,16.16,0,0,0,4.08.65.55.55,0,0,1,.27.06,1.75,1.75,0,0,1-.24.11,19.16,19.16,0,0,1-6.69,1.33,18.83,18.83,0,0,1-12-3.86A18.72,18.72,0,0,1,.3,22.65,18.8,18.8,0,0,1,4.49,7,18.67,18.67,0,0,1,15.85.32,19.22,19.22,0,0,1,19.15,0a16,16,0,0,1,8.1,2,8.26,8.26,0,0,1,2.44,2,5.08,5.08,0,0,1,.67,5.41A5.15,5.15,0,0,0,30,11a7.65,7.65,0,0,1-.42,1.76,2.47,2.47,0,0,0,0,1.94.27.27,0,0,0,.36.18,4.74,4.74,0,0,0,1.6-.77,4,4,0,0,0,.34-.23ZM18.65,35.3l-.15-.12A11,11,0,0,1,14.25,30a9.77,9.77,0,0,1-.65-5.89,13.71,13.71,0,0,1,1.81-4.3,40.55,40.55,0,0,1,4.48-5.63c1.27-1.43,2.55-2.86,3.77-4.33a10.28,10.28,0,0,0,1.87-3.2,3.6,3.6,0,0,0-1-4.07A5.92,5.92,0,0,0,22,1.4a15.8,15.8,0,0,0-5.61-.25A16.53,16.53,0,0,0,5.33,7,16.55,16.55,0,0,0,1.56,22a16.63,16.63,0,0,0,9,11.53,16.48,16.48,0,0,0,6.37,1.8C17.48,35.34,18.05,35.3,18.65,35.3Z"/><path class="cls-1" d="M32.05,5a17.93,17.93,0,0,1,7.17,16.63A17.63,17.63,0,0,1,28.4,36l.19-.15a18,18,0,0,0,6.64-7.14,19.54,19.54,0,0,0,2.21-7.49A20.58,20.58,0,0,0,33.3,6.52c-.35-.46-.74-.88-1.11-1.31C32.15,5.17,32.12,5.12,32.05,5Z"/></g></g></svg>