<svg xmlns="http://www.w3.org/2000/svg" viewBox="0 0 119.73 87.43"><defs><style>.cls-1{fill:#126c69;}</style></defs><g id="Layer_2" data-name="Layer 2"><g id="Layer_1-2" data-name="Layer 1"><path class="cls-1" d="M0,57.52a2.24,2.24,0,0,1,2.13-.91c5.1,0,10.21,0,15.32,0a1.31,1.31,0,0,0,1.47-1c.34-.9.77-1.77,1.23-2.81-1.7,0-3.24,0-4.78,0-1.26,0-1.66-.41-1.72-1.68,0-.27,0-.55,0-.82V2.53C13.65.24,13.89,0,16.2,0h87.47c2.17,0,2.46.28,2.46,2.4V50.58c0,2-.28,2.29-2.29,2.29H99.62c.54,1.21,1,2.29,1.52,3.3.16.28.77.43,1.17.43,5.07,0,10.14,0,15.21,0a4.54,4.54,0,0,1,1.16.09,1.23,1.23,0,0,1,1,1.67,3.05,3.05,0,0,1-.29.76A16.44,16.44,0,0,0,117.61,68c.15,3.47.08,6.94,0,10.41a9.07,9.07,0,0,0,.9,4.39,25.14,25.14,0,0,1,1.06,2.59,1.34,1.34,0,0,1-1.22,2,7.18,7.18,0,0,1-.93,0H2.36c-.93,0-1.8,0-2.36-.91v-.93c1.2-2.48,2.33-4.92,2.18-7.84a109.52,109.52,0,0,1,0-11.46c.16-2.93-1-5.36-2.18-7.84ZM103.43,2.68H16.34V50.21h87.09ZM10.79,79.53h30.9v-15H10.79Zm98.19-15H78.07v15H109ZM3.37,59.26c.71,2.58.71,2.58,3.1,2.58H113.81a7.47,7.47,0,0,0,1.16,0,1,1,0,0,0,.63-.39c.32-.68.56-1.39.87-2.17Zm113,25.53c-.67-2.57-.67-2.57-3.07-2.57H6a7.6,7.6,0,0,0-1.17,0,.93.93,0,0,0-.63.38c-.32.67-.57,1.39-.88,2.17ZM92.64,56.59c-.43-1-.87-1.75-1.14-2.58s-.86-1.16-1.81-1.16q-29.81,0-59.61,0a4.49,4.49,0,0,0-.82,0,.86.86,0,0,0-.56.3c-.53,1.09-1,2.2-1.57,3.41ZM75.33,64.53H44.46v6.1H75.33Zm0,8.89H44.47V79.5H75.33ZM8.08,79.52v-15H4.82v15Zm103.62-15v15H115v-15ZM26,52.87c-.87,0-1.52,0-2.17,0-.3,0-.75.13-.86.35-.56,1-1,2.14-1.59,3.38.94,0,1.67,0,2.4,0a.86.86,0,0,0,.65-.33C24.91,55.2,25.38,54.11,26,52.87ZM94,53c.79,3.34,1.53,4,4.22,3.5C97.4,53.11,96.7,52.53,94,53Z" transform="translate(0 0)"/><path class="cls-1" d="M46.11,42.12c-1.25,0-1.88-.94-1.45-1.79a4.7,4.7,0,0,1,.8-1l27-27.59c.24-.25.48-.63.77-.69.51-.1,1.3-.2,1.54.07A2.49,2.49,0,0,1,75,12.77c0,.25-.37.48-.59.7L47.33,41.15A13,13,0,0,1,46.11,42.12Z" transform="translate(0 0)"/><path class="cls-1" d="M56.91,42.11c-1.29,0-1.91-1-1.4-1.88a4.75,4.75,0,0,1,.84-1q8-8,16-16c1.13-1.13,1.81-1.31,2.47-.67s.53,1.34-.59,2.46q-8.1,8.11-16.22,16.21A8.66,8.66,0,0,1,56.91,42.11Z" transform="translate(0 0)"/><path class="cls-1" d="M29.94,72.05a3.69,3.69,0,1,1-3.69-3.73A3.75,3.75,0,0,1,29.94,72.05Zm-4,1.21h.51c.29-.43.81-.86.79-1.27a1.38,1.38,0,0,0-1-1,1.38,1.38,0,0,0-1,.93C25.23,72.35,25.7,72.82,26,73.26Z" transform="translate(0 0)"/><path class="cls-1" d="M93.54,68.32A3.71,3.71,0,1,1,89.84,72,3.76,3.76,0,0,1,93.54,68.32Zm-.12,5.26c.55-.7,1.12-1.11,1.08-1.44s-.6-.8-.93-1.19c-.38.32-1,.62-1,1S93,72.81,93.42,73.58Z" transform="translate(0 0)"/></g></g></svg>