<svg xmlns="http://www.w3.org/2000/svg" viewBox="0 0 73.99 99.26"><defs><style>.cls-1{fill:#126c69;}</style></defs><g id="Layer_2" data-name="Layer 2"><g id="Layer_1-2" data-name="Layer 1"><path class="cls-1" d="M74,46.21Q74,68,74,89.86c0,1-.08,2-1.11,2.58a1,1,0,0,0-.3.73c0,1.39,0,2.78,0,4.17a1.7,1.7,0,0,1-2,1.92q-33.6,0-67.21,0c-1.23,0-1.91-.52-1.95-1.94s0-2.67,0-4a1.45,1.45,0,0,0-.5-1.07A2,2,0,0,1,0,90.45V2C.06.51.69,0,2,0Q35.2,0,68.4,0h3.92C73.39,0,73.87.49,74,1.58c0,.38,0,.77,0,1.15ZM38.5,3.43V88.87H71.07V3.43Zm-3,85.47V3.45H2.92V88.9ZM4.33,95.82H69.65V92.53H4.33Z" transform="translate(0 0)"/><path class="cls-1" d="M44.11,45.34c0,1.84,0,3.67,0,5.51a2.29,2.29,0,0,1-.19,1.2c-.3.4-.83.87-1.25.86A2.08,2.08,0,0,1,41.45,52a2.37,2.37,0,0,1-.18-1.21c0-3.64,0-7.29,0-10.93a2.66,2.66,0,0,1,.26-1.36,1.71,1.71,0,0,1,1.14-.74,1.73,1.73,0,0,1,1.17.71,2.22,2.22,0,0,1,.25,1.27C44.13,41.61,44.11,43.47,44.11,45.34Z" transform="translate(0 0)"/><path class="cls-1" d="M32.73,45.37c0,1.83,0,3.67,0,5.5a5.43,5.43,0,0,1-.1,1.14,1.35,1.35,0,0,1-2.6,0,4.86,4.86,0,0,1-.13-1.14q0-5.55,0-11.09a2.32,2.32,0,0,1,.25-1.28,1.83,1.83,0,0,1,1.2-.77,1.63,1.63,0,0,1,1.14.73,2.41,2.41,0,0,1,.24,1.27C32.74,41.64,32.73,43.5,32.73,45.37Z" transform="translate(0 0)"/></g></g></svg>