<svg xmlns="http://www.w3.org/2000/svg" viewBox="0 0 116.81 116.81"><defs><style>.cls-1{fill:#0c6c68;stroke:#0c6c68;stroke-miterlimit:10;stroke-width:1.5px;}.cls-2{fill:#fff;}</style></defs><g id="Layer_2" data-name="Layer 2"><g id="Layer_1-2" data-name="Layer 1"><circle class="cls-1" cx="58.4" cy="58.4" r="57.65"/><path class="cls-2" d="M58.4,89.83A59.63,59.63,0,0,1,44,88a23.14,23.14,0,0,1-6.47-2.71,9.07,9.07,0,0,1-2.92-2.83,5.18,5.18,0,0,1-.83-2.9A24.35,24.35,0,0,1,45.31,58.7c.79-.52.8-.5,1.55,0a19.27,19.27,0,0,0,23.49-.32.47.47,0,0,1,.63-.06A24.45,24.45,0,0,1,82.71,75.78c.17,1,.2,2,.29,3a6.15,6.15,0,0,1-2.19,5.25,16,16,0,0,1-5.28,3,39.25,39.25,0,0,1-10.15,2.25C63.06,89.58,60.73,89.67,58.4,89.83Z"/><path class="cls-2" d="M58.45,27A16.26,16.26,0,1,1,42.13,43.15,16.27,16.27,0,0,1,58.45,27Z"/></g></g></svg>