<svg xmlns="http://www.w3.org/2000/svg" viewBox="0 0 44.01 37.51"><defs><style>.cls-1{fill:#fff;stroke:;stroke-miterlimit:10;stroke-width:1.5px;}</style></defs><g id="Layer_2" data-name="Layer 2"><g id="Layer_1-2" data-name="Layer 1"><path class="cls-1" d="M43.26,13.35c-.08.43-.16.85-.25,1.27A14.7,14.7,0,0,1,40.2,20.3a56,56,0,0,1-9.75,9.77c-2.78,2.25-5.6,4.46-8.39,6.69H22L19.1,34.44c-3.21-2.63-6.46-5.21-9.59-7.92a32.7,32.7,0,0,1-7-8.42A11.85,11.85,0,0,1,.84,13.29,1.89,1.89,0,0,0,.75,13V11c0-.12.08-.25.1-.38A11.49,11.49,0,0,1,6.14,2.45a11.31,11.31,0,0,1,14.15,2c.47.53.93,1.08,1.41,1.62a3.58,3.58,0,0,0,.28.26c.61-.65,1.18-1.28,1.77-1.89A11.87,11.87,0,0,1,29.65,1c.4-.1.81-.17,1.21-.26h2a4.15,4.15,0,0,0,.48.11A11.1,11.1,0,0,1,42.88,9.5c.15.62.26,1.24.38,1.85Zm-21.44-4c-.08-.2-.13-.29-.17-.4C20.17,3.87,13.87.65,8.4,2.58,4.36,4,0,10.17,2.87,16.09a30.09,30.09,0,0,0,6.27,8.28A147.36,147.36,0,0,0,21.22,34.46c.66.52,1.05.49,1.79-.08l6.46-5.06A52.59,52.59,0,0,0,39.88,18.66a10.23,10.23,0,0,0,1.59-9.75A10.12,10.12,0,0,0,28.59,2.55a11.06,11.06,0,0,0-5.53,4.79Z"/></g></g></svg>